<svg width="205" height="36" viewBox="0 0 205 36" fill="none" xmlns="http://www.w3.org/2000/svg">
<path d="M190.359 35.4508C188.345 35.4508 186.543 34.9334 184.952 33.8986C183.361 32.8638 182.103 31.3617 181.18 29.3922C180.256 27.4228 179.794 25.0305 179.794 22.2154C179.794 19.3669 180.262 16.9635 181.196 15.0051C182.142 13.0357 183.416 11.5502 185.019 10.5488C186.621 9.53628 188.407 9.03001 190.376 9.03001C191.878 9.03001 193.113 9.28593 194.081 9.79776C195.049 10.2985 195.817 10.9049 196.385 11.617C196.952 12.318 197.392 12.9801 197.703 13.6032H197.954V0.818359H204.012V35.0002H198.07V30.9611H197.703C197.392 31.5842 196.941 32.2463 196.351 32.9473C195.762 33.6371 194.983 34.2269 194.015 34.7164C193.047 35.206 191.828 35.4508 190.359 35.4508ZM192.045 30.4938C193.325 30.4938 194.415 30.1489 195.316 29.459C196.218 28.758 196.902 27.7844 197.369 26.5382C197.837 25.292 198.07 23.8399 198.07 22.182C198.07 20.5241 197.837 19.0832 197.369 17.8592C196.913 16.6352 196.234 15.6839 195.333 15.0051C194.443 14.3264 193.347 13.987 192.045 13.987C190.699 13.987 189.575 14.3375 188.674 15.0385C187.772 15.7395 187.094 16.7076 186.637 17.9426C186.181 19.1777 185.953 20.5908 185.953 22.182C185.953 23.7843 186.181 25.2141 186.637 26.4714C187.105 27.7176 187.789 28.7024 188.69 29.4256C189.603 30.1377 190.721 30.4938 192.045 30.4938Z" fill="white"/>
<path d="M160.127 19.9791V35.0004H154.085V9.36408H159.86V13.7203H160.16C160.75 12.2849 161.69 11.1444 162.981 10.2987C164.283 9.4531 165.891 9.03027 167.804 9.03027C169.574 9.03027 171.115 9.40859 172.428 10.1652C173.752 10.9218 174.775 12.0178 175.499 13.4532C176.233 14.8886 176.595 16.6299 176.584 18.6773V35.0004H170.542V19.6119C170.542 17.8984 170.097 16.5576 169.206 15.5896C168.327 14.6215 167.109 14.1375 165.551 14.1375C164.494 14.1375 163.554 14.3712 162.731 14.8385C161.918 15.2947 161.279 15.9568 160.811 16.8247C160.355 17.6926 160.127 18.7441 160.127 19.9791Z" fill="white"/>
<path d="M139.454 35.5012C136.884 35.5012 134.664 34.9671 132.795 33.8989C130.937 32.8196 129.507 31.2952 128.506 29.3257C127.504 27.3451 127.003 25.0141 127.003 22.3325C127.003 19.6954 127.504 17.381 128.506 15.3893C129.518 13.3865 130.931 11.8287 132.745 10.716C134.559 9.59218 136.689 9.03027 139.137 9.03027C140.717 9.03027 142.208 9.28619 143.61 9.79803C145.023 10.2987 146.27 11.0776 147.349 12.1347C148.439 13.1917 149.296 14.5381 149.919 16.1737C150.542 17.7983 150.854 19.7343 150.854 21.982V23.8346H129.841V19.7622H145.062C145.051 18.605 144.801 17.5757 144.311 16.6744C143.822 15.762 143.137 15.0444 142.258 14.5214C141.39 13.9984 140.378 13.7369 139.221 13.7369C137.986 13.7369 136.901 14.0374 135.966 14.6382C135.031 15.228 134.303 16.0068 133.78 16.9749C133.268 17.9318 133.006 18.9833 132.995 20.1293V23.6844C132.995 25.1754 133.268 26.455 133.813 27.5232C134.358 28.5802 135.12 29.3925 136.1 29.96C137.079 30.5163 138.225 30.7945 139.538 30.7945C140.417 30.7945 141.212 30.6721 141.925 30.4273C142.637 30.1714 143.254 29.7986 143.777 29.309C144.3 28.8195 144.695 28.213 144.962 27.4898L150.604 28.124C150.248 29.615 149.569 30.9169 148.567 32.0296C147.577 33.1311 146.309 33.9879 144.762 34.5999C143.215 35.2007 141.446 35.5012 139.454 35.5012Z" fill="white"/>
<path d="M103.631 35.0002V0.818359H109.823V29.8095H124.878V35.0002H103.631Z" fill="white"/>
<path d="M87.8315 35.5012C85.3279 35.5012 83.1582 34.9504 81.3222 33.8488C79.4863 32.7472 78.062 31.2062 77.0495 29.2256C76.0481 27.245 75.5474 24.9306 75.5474 22.2824C75.5474 19.6342 76.0481 17.3142 77.0495 15.3225C78.062 13.3308 79.4863 11.7842 81.3222 10.6826C83.1582 9.58105 85.3279 9.03027 87.8315 9.03027C90.335 9.03027 92.5048 9.58105 94.3407 10.6826C96.1766 11.7842 97.5953 13.3308 98.5967 15.3225C99.6093 17.3142 100.116 19.6342 100.116 22.2824C100.116 24.9306 99.6093 27.245 98.5967 29.2256C97.5953 31.2062 96.1766 32.7472 94.3407 33.8488C92.5048 34.9504 90.335 35.5012 87.8315 35.5012ZM87.8648 30.661C89.2223 30.661 90.3573 30.2882 91.2697 29.5427C92.1821 28.7861 92.8608 27.7735 93.3059 26.5051C93.7621 25.2366 93.9902 23.8235 93.9902 22.2657C93.9902 20.6968 93.7621 19.2781 93.3059 18.0097C92.8608 16.7301 92.1821 15.712 91.2697 14.9553C90.3573 14.1987 89.2223 13.8204 87.8648 13.8204C86.474 13.8204 85.3168 14.1987 84.3932 14.9553C83.4808 15.712 82.7965 16.7301 82.3403 18.0097C81.8953 19.2781 81.6727 20.6968 81.6727 22.2657C81.6727 23.8235 81.8953 25.2366 82.3403 26.5051C82.7965 27.7735 83.4808 28.7861 84.3932 29.5427C85.3168 30.2882 86.474 30.661 87.8648 30.661Z" fill="white"/>
<path d="M73.7512 9.36373V14.037H59.0137V9.36373H73.7512ZM62.6522 3.22168H68.6941V27.2892C68.6941 28.1014 68.8165 28.7245 69.0613 29.1585C69.3172 29.5813 69.651 29.8706 70.0627 30.0264C70.4744 30.1821 70.9306 30.26 71.4313 30.26C71.8096 30.26 72.1545 30.2322 72.4661 30.1766C72.7888 30.1209 73.0336 30.0709 73.2005 30.0264L74.2186 34.7497C73.8959 34.861 73.4341 34.9834 72.8333 35.1169C72.2435 35.2504 71.5203 35.3283 70.6635 35.3506C69.1503 35.3951 67.7872 35.167 66.5744 34.6663C65.3616 34.1544 64.3991 33.3644 63.687 32.2963C62.986 31.2281 62.641 29.8928 62.6522 28.2906V3.22168Z" fill="white"/>
<path d="M50.5752 24.2177V9.36328H56.6171V34.9996H50.7588V30.4432H50.4917C49.9131 31.8786 48.9618 33.0524 47.6377 33.9648C46.3247 34.8772 44.7058 35.3335 42.7808 35.3335C41.1006 35.3335 39.6152 34.9607 38.3245 34.2152C37.0449 33.4586 36.0435 32.3626 35.3202 30.9272C34.597 29.4807 34.2354 27.7338 34.2354 25.6864V9.36328H40.2773V24.7518C40.2773 26.3763 40.7223 27.667 41.6125 28.6239C42.5026 29.5808 43.671 30.0593 45.1175 30.0593C46.0076 30.0593 46.8699 29.8423 47.7045 29.4084C48.539 28.9744 49.2233 28.3291 49.7574 27.4723C50.3026 26.6044 50.5752 25.5195 50.5752 24.2177Z" fill="white"/>
<path d="M6.76123 35.0002H0.151855L12.1856 0.818359H19.8298L31.8802 35.0002H25.2708L16.1412 7.8283H15.8742L6.76123 35.0002ZM6.97821 21.5978H25.0038V26.5716H6.97821V21.5978Z" fill="white"/>
</svg>
