<?xml version="1.0"?>
<svg xmlns="http://www.w3.org/2000/svg" viewBox="0 0 512 512"><g id="outline"><g id="_23-message" data-name="23-message">
	<path d="M487,436H25A25.028,25.028,0,0,1,0,411V101A25.028,25.028,0,0,1,25,76H487a25.028,25.028,0,0,1,25,25V411A25.028,25.028,0,0,1,487,436ZM25,86a15.017,15.017,0,0,0-15,15V411a15.017,15.017,0,0,0,15,15H487a15.017,15.017,0,0,0,15-15V101a15.017,15.017,0,0,0-15-15Z" fill="#ffffff"/>
	<path d="M256,290.893a31.444,31.444,0,0,1-20.467-7.829L8.7,89.675a5,5,0,1,1,6.488-7.61l226.837,193.39c8.491,7.239,19.465,7.239,27.959,0L496.816,82.065a5,5,0,1,1,6.488,7.61L276.468,283.064A31.449,31.449,0,0,1,256,290.893Z" fill="#ffffff"/>
	<path d="M497.653,432.92a4.99,4.99,0,0,1-3.942-1.92L334.191,227.01a5,5,0,0,1,7.877-6.16l159.52,203.99a5,5,0,0,1-3.935,8.08Z" fill="#ffffff"/>
	<path d="M14.347,432.92a5,5,0,0,1-3.935-8.08l159.52-203.99a5,5,0,0,1,7.877,6.16L18.289,431A4.992,4.992,0,0,1,14.347,432.92Z" fill="#ffffff"/></g></g></svg>
