<?xml version="1.0" encoding="UTF-8"?>
<svg xmlns="http://www.w3.org/2000/svg" xmlns:xlink="http://www.w3.org/1999/xlink" version="1.1" id="Capa_1" x="0px" y="0px" viewBox="0 0 512 512" style="enable-background:new 0 0 512 512;" xml:space="preserve" width="512" height="512">
<g>
	<path style="fill:none;stroke:#000000;stroke-width:15;stroke-linecap:round;stroke-linejoin:round;stroke-miterlimit:10;" d="&#10;&#9;&#9;M260.471,321.934v-53.149c0-7.391,2.997-14.088,7.845-18.927c4.839-4.847,11.536-7.845,18.927-7.845&#10;&#9;&#9;c14.79,0,26.772,11.99,26.772,26.772v12.975"/>
	<path style="fill:none;stroke:#000000;stroke-width:15;stroke-linecap:round;stroke-linejoin:round;stroke-miterlimit:10;" d="&#10;&#9;&#9;M314.014,321.934v-40.175c0-7.391,2.997-14.08,7.845-18.927c4.839-4.847,11.536-7.845,18.927-7.845&#10;&#9;&#9;c14.79,0,26.772,11.99,26.772,26.772v20.271"/>
	<path style="fill:none;stroke:#000000;stroke-width:15;stroke-linecap:round;stroke-linejoin:round;stroke-miterlimit:10;" d="&#10;&#9;&#9;M135.309,385.31l-38.92-51.92c-9.32-12.42-6.52-30.09,6.19-39.03c4.81-3.38,10.33-5.01,15.82-5.01c8.2,0,16.29,3.65,21.7,10.57&#10;&#9;&#9;l51.52,65.87c5.02,6.41,15.31,2.86,15.31-5.28V144.77c0-7.39,3-14.08,7.84-18.93c4.98-4.99,11.93-8.02,19.58-7.84&#10;&#9;&#9;c14.62,0.35,26.12,12.68,26.12,27.31v123.47"/>
	<path style="fill:none;stroke:#000000;stroke-width:15;stroke-linecap:round;stroke-linejoin:round;stroke-miterlimit:10;" d="&#10;&#9;&#9;M156.299,413.32l39.89,53.22c17.91,23.89,46.04,37.96,75.9,37.96h57.8c16.1,0,31.65-4.09,45.36-11.55&#10;&#9;&#9;c13.71-7.47,25.59-18.32,34.32-31.84c7.54-11.67,11.55-25.27,11.55-39.16v-36.59v-83.35c-0.01-14.78-11.99-26.76-26.78-26.76&#10;&#9;&#9;c-7.4,0-14.09,3-18.94,7.85c-4.84,4.84-7.84,11.54-7.84,18.93v27.21"/>
	<path style="fill:none;stroke:#000000;stroke-width:15;stroke-linecap:round;stroke-linejoin:round;stroke-miterlimit:10;" d="&#10;&#9;&#9;M316.279,66.74c2.98,8.78,4.59,18.17,4.59,27.93c0,27.28-12.6,51.67-32.29,67.67"/>
	<path style="fill:none;stroke:#000000;stroke-width:15;stroke-linecap:round;stroke-linejoin:round;stroke-miterlimit:10;" d="&#10;&#9;&#9;M178.809,162.34c-19.68-16-32.28-40.39-32.28-67.67c0-48.06,39.1-87.17,87.17-87.17c25.67,0,48.78,11.15,64.74,28.87"/>
	<path style="fill:none;stroke:#000000;stroke-width:15;stroke-linecap:round;stroke-linejoin:round;stroke-miterlimit:10;" d="&#10;&#9;&#9;M185.107,119.215c-3.735-7.379-5.843-15.713-5.843-24.548c0-30.06,24.377-54.437,54.437-54.437&#10;&#9;&#9;c30.06,0,54.427,24.377,54.427,54.437c0,8.895-2.139,17.299-5.924,24.718"/>
</g>















</svg>
