<svg xmlns="http://www.w3.org/2000/svg" viewBox="0 0 531 129">
  <g fill="none" fill-rule="nonzero">
    <path fill="#000" d="M404.398 128.021c-2.348-.93-4.916-.494-7.321-1.251-2.501-.787-4.967-1.562-6.916-3.394-2.588-2.432-3.151-6.381-1.344-8.956 1.813-2.583 6.707-3.781 9.557-2.402 1.269.615 1.383 1.243.42 2.279-3.794 4.083-1.141 9.772 4.275 10.49 3.422.452 6.724.6 10.052-.288 1.328-.354 2.531-.976 3.545-1.911 1.673-1.543 2.667-3.427 2.216-5.732-.462-2.358-2.454-3.227-4.473-3.6-4.545-.84-9.135-1.429-13.701-2.16-2.009-.321-3.959-.895-5.807-1.765-2.612-1.229-4.478-2.933-4.475-6.156.003-3.267 1.695-5.26 4.419-6.628.673-.338 1.382-.604 2.444-1.062-4.575-2.488-6.861-6.051-6.855-11.045.006-5.307 2.395-9.064 7.043-11.445 3.853-1.973 8.041-2.433 12.233-1.996 5.074.53 10.141.758 15.232.741 1.212-.004 2.599-.209 2.622 1.741.017 1.352-.354 2.142-1.869 2.181-1.21.032-2.468-.277-3.753.36.853 2.075 2.074 3.964 2.272 6.297.682 8.028-3.731 13.805-11.673 15.195-3.254.57-6.54.348-9.802.626-1.656.142-4.077-.064-4.206 1.859-.147 2.189 2.439 1.479 3.777 1.67 4.69.667 9.463.696 14.12 1.691.882.188 1.756.416 2.625.656 4.286 1.188 7.225 3.684 7.801 8.317.628 5.062-.496 9.402-5.112 12.37-3.241 2.084-6.965 2.449-10.557 3.315-2.261.003-4.525.003-6.789.003zm9.916-43.843c-.068-1.797-.355-4.137-1.353-6.32-1.013-2.218-2.667-3.59-5.216-3.629-2.591-.041-4.254 1.375-5.188 3.612-1.906 4.571-1.89 9.218.027 13.769.925 2.194 2.581 3.679 5.181 3.662 2.727-.019 4.373-1.578 5.362-3.919.888-2.095 1.169-4.329 1.187-7.175z"></path>
    <path fill="#158ACD" d="M1.544 110.327c.755-.712 1.473-.426 2.106-.539 5.022-.906 7.383-3.293 7.723-8.396.308-4.618.767-9.228.752-13.873-.074-22.854-.055-45.708-.136-68.562-.011-3.155-.291-6.32-.637-9.46-.517-4.682-2.336-6.537-6.928-7.457-1.056-.21-2.098-.489-3.532-.828C2.31.338 3.448.634 4.509.632 20.234.61 35.962.508 51.687.65c12.262.111 23.464 3.443 32.527 12.161 7.302 7.023 11.883 15.638 13.912 25.53 3.492 17.021 2.251 33.599-6.046 49.095-6.06 11.318-15.671 18.346-28.245 21.377-5.056 1.219-10.082 1.638-15.27 1.574-14.367-.174-28.737-.06-43.106-.061l-3.915.001zm32.762-54.601c0 11.648.008 23.297-.003 34.945-.005 5.088-.036 10.177-.087 15.265-.023 2.249.97 3.324 3.28 3.264 2.373-.062 4.753-.066 7.123.059 9.958.526 17.079-4.229 22.448-12.107 7.312-10.73 9.011-23.122 9.99-35.61.581-7.41-.277-14.793-1.517-22.157-1.61-9.562-4.112-18.72-10.153-26.499-4.37-5.628-9.825-9.53-17.273-10.219-2.94-.272-5.858-.355-8.79-.369-4.806-.023-5.006.18-5.01 4.912-.014 16.171-.006 32.344-.008 48.516z"></path>
    <path fill="#158ACD" d="M90.918 1.021c.284-.478.77-.387 1.193-.388 10.861-.028 21.723-.015 32.583-.097 1.919-.014 3.186.751 4.258 2.236 12.711 17.604 25.443 35.191 38.167 52.785 3.38 4.673 6.74 9.361 10.138 14.021.572.784 1.112 1.965 2.33 1.535 1.035-.366.782-1.538.783-2.4.001-16.519.276-33.045-.184-49.551-.191-6.857-2.179-13.535-9.783-16.411-1.975-.747-4.07-1.039-6.078-1.902h35.303l.083.332c-1.563.33-3.149.579-4.686 1.004-6.831 1.894-10.651 6.983-11.379 15.153-.13 1.461-.077 2.939-.111 4.409-.646 27.817-.604 55.64-.612 83.461a77.7 77.7 0 01-.05 3.054c-.032.836-.322 1.506-1.172 1.886-2.286 1.021-6.337.024-7.903-2.116-7.479-10.22-14.922-20.465-22.375-30.704-8.649-11.883-17.292-23.771-25.944-35.653a6014.584 6014.584 0 00-12.386-16.941c-.583-.795-1.073-2.11-2.178-1.84-1.259.307-.755 1.71-.755 2.636.009 22.062.001 44.124.131 66.185.029 4.917.991 9.667 4.476 13.543 2.64 2.936 6.079 4.154 9.795 4.983H91.338c6.533-1.18 11.562-3.424 13.602-9.437 1.221-3.596 2.041-7.351 2.057-11.192.045-10.409.42-20.835-.054-31.222-.624-13.684-.258-27.356-.356-41.033-.009-1.21-.326-2.195-.987-3.15-3.745-5.417-7.389-10.941-14.37-12.703-.135-.033-.209-.315-.312-.483z"></path>
    <path fill="#000" d="M292.407 51.123c-1.387-.422-2.318-.744-3.397-1.301-2.634-1.362-4.826-2.991-4.754-6.363.069-3.24 1.891-5.185 4.681-6.429.616-.274 1.247-.513 2.221-.91-3.996-2.218-6.468-5.287-6.863-9.749-.675-7.592 4.523-13.45 12.969-14.47 1.899-.229 3.852-.361 5.749-.193 5.404.478 10.8.978 16.234.794 1.161-.039 2.272-.062 2.33 1.648.062 1.805-.973 2.048-2.374 1.987-.45-.02-.908.04-1.355-.006-2.228-.229-2.06.532-1.201 2.219 4.312 8.466.21 17.224-8.987 19.556-3.458.876-6.978.45-10.458.75-1.707.147-4.462-.31-4.585 1.7-.138 2.259 2.647 1.363 4.111 1.586 5.018.764 10.137.793 15.107 1.936 7.291 1.677 10.449 5.961 9.75 13.142-.425 4.362-2.853 7.515-6.715 9.085-9.205 3.74-18.541 3.43-27.706-.287-2.458-.998-4.257-2.952-5.115-5.596-1.471-4.53 1.135-8.542 5.904-8.962 1.457-.128 3.12-.061 4.347.146 1.228.208 1.235 1.718.18 3.077-2.809 3.616-1.609 8.566 2.511 10.094 4.804 1.781 9.754 1.714 14.518-.321 2.6-1.11 4.072-3.182 3.944-6.125-.131-3.017-2.446-3.904-4.795-4.42-5.388-1.181-10.78-1.939-16.251-2.588zm15.634-25.34c.125-2.875-.186-5.687-1.698-8.191-2.183-3.615-6.578-3.851-9.011-.557-2.766 3.745-2.909 12.358-.276 16.222 1.248 1.83 2.925 2.729 5.181 2.576 2.304-.156 3.741-1.422 4.635-3.428.936-2.107 1.262-4.332 1.169-6.622zM290.374 91.417c-2.942 0-5.885.05-8.824-.021-1.572-.038-2.225.47-2.149 2.146.151 3.428.596 6.777 2.273 9.815 1.84 3.332 4.906 4.512 8.615 3.581 3.476-.873 5.979-3.06 8.157-5.752.587-.726.941-1.999 2.338-1.191 1.493.863.71 1.904.209 2.887-5.723 11.239-19.017 10.975-25.247 6.094-2.321-1.818-3.409-1.491-5.48.193-3.991 3.245-8.726 4.099-13.736 2.61-3.89-1.155-6.451-3.7-7.319-7.699-.885-4.083.23-7.637 3.374-10.433 3.72-3.311 8.388-4.296 13.097-5.103 3.484-.597 3.466-.562 3.235-4.019-.136-2.029-.116-4.069-.279-6.096-.241-3.004-1.287-4.165-3.735-4.346-2.67-.197-4.793 1.135-5.474 3.56a8.384 8.384 0 00-.278 2.677c.078 1.41.247 2.981-1.466 3.333-2.188.45-4.534.838-6.523-.702-1.389-1.075-1.767-2.571-1.214-4.262.436-1.331 1.264-2.379 2.32-3.279 5.729-4.877 15.766-5.922 22.268-2.161 1.102.637 1.772.54 2.719-.067 2.863-1.836 6.048-2.346 9.41-2.287 6.354.112 10.695 3.131 13.2 8.886 1.278 2.938 1.738 6.062 1.991 9.235.141 1.756-.544 2.457-2.317 2.409-3.053-.082-6.109-.022-9.163-.022-.002.006-.002.01-.002.014zm-31.436 9.868c0 .339-.011.679.001 1.017.122 3.447 1.457 5.344 4.071 5.79 2.403.41 7.003-1.824 7.911-3.809.267-.582.126-1.083-.083-1.614-1.218-3.086-1.756-6.312-1.829-9.606-.038-1.735-.994-1.692-2.25-1.504-5.223.782-7.755 3.909-7.821 9.726zm26.659-13.173c1.469 0 2.939.011 4.409-.003 1.023-.01 1.757-.388 1.788-1.552.093-3.54-.105-7.065-1.957-10.187-1.787-3.013-5.89-3.104-7.961-.271-1.086 1.486-1.544 3.235-1.882 5.035-1.319 7.021-1.337 7.018 5.603 6.978zM216.189 52.185c-3.507.003-7.015.027-10.523-.012-.951-.011-2.255.33-2.474-1.097-.186-1.213.93-1.439 1.81-1.576 1.963-.304 2.563-1.63 2.697-3.354.124-1.576.313-3.154.318-4.731.028-10.183.022-20.367.004-30.55-.002-1.24-.158-2.479-.205-3.72-.091-2.354-.748-4.253-3.492-4.583-.761-.092-1.284-.46-1.2-1.317.066-.684.557-.962 1.172-.948 8.806.205 17.666-.843 26.41.55 7.588 1.209 12.521 6.064 15.172 13.088 3.218 8.529 2.847 17.149-.673 25.482-3.528 8.354-10.224 12.388-19.174 12.742-3.276.132-6.561.023-9.842.026zm2.196-26.019h-.136c0 6.77-.009 13.54.008 20.31.003 1.313-.258 2.627 1.852 2.868 7.082.807 11.871-1.678 14.501-8.371 3.884-9.883 3.657-19.912-.324-29.688-2.275-5.589-6.503-8.674-12.974-8.283-2.444.147-3.01.936-2.97 3.19.12 6.656.043 13.316.043 19.974z"></path>
    <path fill="#000" d="M215.061 74.448c0 9.407-.106 18.561.054 27.709.061 3.507 1.383 6.468 5.544 6.938.833.094 1.629.378 1.472 1.44-.15 1.023-1.01 1.082-1.825 1.083-4.864.005-9.729.007-14.593-.004-.804-.002-1.706-.054-1.842-1.071-.176-1.313.931-1.282 1.788-1.518 3.558-.976 5.052-2.449 5.128-6.13.229-11.08.374-22.167.254-33.247-.036-3.376-2.438-5.715-5.368-7.291-.839-.452-2.282-.303-2.053-1.746.258-1.623 1.73-1.129 2.765-1.148 3.166-.06 6.341.103 9.5-.065 2.28-.122 3.722.665 5.063 2.542 6.05 8.465 12.253 16.821 18.41 25.21.71.967 1.481 1.889 2.575 3.279 0-7.904.149-15.205-.071-22.495-.091-3.025-1.671-5.4-5.112-5.807-.94-.111-1.93-.308-1.838-1.517.097-1.267 1.205-1.149 2.084-1.152 4.751-.02 9.502-.019 14.253-.001.883.003 1.955-.105 2.055 1.182.076.998-.704 1.222-1.521 1.477-4.359 1.357-5.43 2.648-5.604 7.182-.161 4.18-.15 8.369-.161 12.553-.022 8.711.018 17.422-.036 26.133-.008 1.242.622 2.914-1.175 3.506-1.827.602-2.892-.538-3.892-1.931a9596.217 9596.217 0 00-23.639-32.726c-.578-.797-.951-1.796-2.215-2.385zM365.063 92.639c0 3.842-.054 7.686.021 11.526.042 2.164.096 4.426 3.046 4.857.822.12 1.02.819.896 1.559-.108.647-.605.9-1.207.978-.224.029-.45.057-.675.057-4.86.006-9.72.013-14.58.002-.91-.002-1.897.014-2.027-1.251-.105-1.038.554-1.356 1.446-1.453 2.07-.225 2.49-1.812 2.561-3.434.404-9.373.391-18.75.022-28.126-.062-1.619-.663-2.844-2.448-3.166-.961-.172-1.809-.565-1.548-1.762.271-1.24 1.364-.987 2.217-.996 3.278-.03 6.557-.021 9.833.003.769.005 1.939-.148 2.062.725.396 2.834 1.628 1.451 2.799.701 2.144-1.375 4.47-2.098 7.035-2.129 7.206-.086 11.48 3.886 11.671 11.129.184 6.999-.15 14.01.422 20.999.21 2.576-.479 5.721 3.461 6.315.466.07.648.595.642 1.075-.01.638-.355 1.068-.958 1.221a5.589 5.589 0 01-1.342.147c-4.746.011-9.494.009-14.24.008-.927-.001-1.892.016-1.989-1.265-.077-1.015.544-1.348 1.446-1.471 2.036-.279 2.463-1.886 2.509-3.499.229-8.019.48-16.055-.096-24.055-.369-5.13-4.672-6.885-9.034-4.134-1.505.949-2.104 2.123-2.053 3.91.111 3.839.034 7.685.034 11.528l.074.001zM367.389 14.968c3.721-2.573 7.481-4.328 12.103-3.314 5.201 1.14 7.986 4.038 8.696 9.395.731 5.524.298 11.069.425 16.604.055 2.374.137 4.747.145 7.121.008 2.274.209 4.357 3.027 4.901.777.15 1.084.771.91 1.544-.146.651-.691.902-1.271.905a3140 3140 0 01-15.948.025c-.633 0-1.101-.31-1.197-.956-.118-.782.263-1.346 1.029-1.491 2.824-.535 3.026-2.648 3.024-4.907-.008-7.238.054-14.477-.06-21.713-.037-2.376-.354-4.98-2.971-6.011-2.179-.858-4.418-.54-6.438.907-1.316.943-1.88 2.06-1.86 3.708.092 7.691.058 15.384.127 23.076.02 2.204.229 4.387 3.079 4.897.793.142 1.059.794.922 1.548-.12.656-.66.918-1.245.919-5.315.012-10.63.005-15.944-.024-.6-.003-1.094-.337-1.168-.999-.07-.625.216-1.187.825-1.303 3.242-.623 3.09-3.14 3.14-5.536.174-8.368.224-16.736-.03-25.104-.066-2.16-.308-4.132-3.024-4.512-.794-.111-1.133-.694-1.051-1.468.089-.831.713-1.132 1.429-1.138 3.732-.028 7.465.009 11.196-.033 2-.024 1.545 1.78 2.13 2.959zM279.353 34.705c0 3.082-.031 6.588.013 10.094.021 1.619.056 3.317 2.467 3.136.829-.062 1.185.471 1.249 1.255.095 1.161-.519 1.892-1.403 2.519-3.286 2.33-8.459 1.827-11.062-1.485-1.254-1.595-1.692-1.285-2.952-.15-4.065 3.66-10.531 4.06-15.165 1.145-6.203-3.901-6.314-13.257-.173-17.561 3.989-2.796 8.704-3.641 13.312-4.715 3.659-.854 3.674-.8 3.444-4.611-.123-2.027-.186-4.062-.404-6.08-.236-2.185-1.392-3.509-3.75-3.556-2.279-.046-3.945.75-4.679 3.063-.348 1.101-.569 2.219-.31 3.339.571 2.469-.694 3.19-2.87 3.429-3.036.333-5.41-.475-6.176-2.347-.806-1.973-.003-4.495 2.289-6.238 6.138-4.667 13.075-5.253 20.269-3.39 3.463.897 4.806 3.829 5.353 7.168.791 4.835.446 9.704.548 14.985zm-10.181 2.035l.001-3.937c0-.887-.149-1.453-1.33-1.395-6.804.334-11.59 6.691-9.949 13.31.832 3.354 4.002 4.791 7.116 3.236 1.968-.982 3.005-2.676 3.577-4.699.622-2.198.676-4.458.585-6.515z"></path>
    <path fill="#000" d="M342.276 31.998c-2.827 0-5.656.064-8.481-.022-1.96-.061-2.92.508-2.74 2.698.25 3.064.607 6.074 2.013 8.853 1.859 3.675 5.051 5.077 9.037 3.985 3.411-.934 6.023-3.001 8.131-5.785.584-.771 1.074-1.897 2.391-.988 1.235.853.517 1.794.101 2.672-3.103 6.547-9.601 10.004-17.344 9.255-7.188-.695-11.962-4.763-13.742-12.062-1.442-5.913-1.661-11.897.424-17.729 3.35-9.37 10.639-12.595 19.943-10.822 4.745.904 7.887 4.188 9.647 8.716 1.074 2.763 1.53 5.643 1.833 8.576.195 1.895-.438 2.705-2.39 2.649-2.938-.084-5.881-.022-8.822-.022l-.001.026zm-5.034-3.198c1.578 0 3.156-.009 4.734.003.875.007 1.581-.159 1.57-1.252-.033-3.624-.128-7.266-2.052-10.484-1.954-3.269-5.907-3.316-8.065-.16-1.031 1.508-1.46 3.25-1.788 5.044-1.256 6.863-1.283 6.859 5.601 6.849zM395.608 45.773c0-1.471-.025-2.941.009-4.411.021-.888-.061-1.959 1.148-2.134 1.215-.175 1.415.775 1.63 1.712.483 2.111 1.286 4.094 2.676 5.792 2.491 3.042 6.38 4.052 9.743 2.543 4.12-1.848 4.79-6.413 1.333-9.293-1.844-1.536-4.057-2.446-6.199-3.469-1.735-.829-3.494-1.621-5.168-2.561-5.04-2.831-6.881-6.628-6.136-12.444.591-4.606 3.911-8.133 8.945-9.539 4.848-1.354 9.646-.109 14.46.261 1.174.09 1.824.728 1.812 1.988-.026 2.714.006 5.429-.023 8.144-.008.816-.175 1.628-1.213 1.737-1.004.105-1.333-.523-1.547-1.397-.267-1.092-.563-2.204-1.051-3.208-2.062-4.246-7.201-6.212-11.557-4.496-3.291 1.297-3.981 5.363-1.268 7.703 1.566 1.349 3.521 1.993 5.41 2.741 2.729 1.08 5.472 2.139 7.878 3.872 4.635 3.339 6.345 9.02 4.484 14.834-1.723 5.384-5.928 8.67-11.624 8.676-3.948.004-7.896-.425-11.847-.637-1.524-.082-2.255-.673-2.042-2.35.169-1.334.033-2.708.033-4.063l.114-.001zM429.269 104.976c0-1.018-.1-2.048.026-3.049.14-1.121-.704-2.84.965-3.184 1.849-.381 1.569 1.59 1.901 2.598.798 2.42 1.896 4.593 3.91 6.202 2.508 2.004 5.272 2.484 8.242 1.155 4.157-1.862 4.768-6.841 1.119-9.57-3.279-2.454-7.223-3.689-10.801-5.609-3.74-2.007-6.175-4.879-6.6-9.205-.682-6.94 3.517-12.257 10.592-13.348 4.413-.68 8.789.188 13.176.499 1.411.1 1.517 1.099 1.516 2.178-.001 2.6.012 5.2-.005 7.8-.006.898.074 1.933-1.215 2.031-1.221.093-1.438-.826-1.609-1.763-.744-4.085-3.116-6.667-7.166-7.639a8.8 8.8 0 00-2.343-.238c-3.405.123-5.511 1.571-5.926 4-.418 2.441.693 4.107 3.896 5.613 3.269 1.538 6.796 2.503 9.896 4.416 7.707 4.755 8.647 15.556 1.85 21.432-3.008 2.601-6.651 3.337-10.456 2.941-2.814-.293-5.625-.598-8.444-.568-1.955.021-2.633-.777-2.522-2.622.081-1.352.016-2.712.016-4.068-.007-.002-.013-.002-.018-.002z"></path>
    <path fill="#000" d="M469 83.165c0 6.903-.056 13.806.033 20.707.028 2.23.025 4.695 3.159 5.153.847.124 1.022.821.892 1.546-.149.825-.84 1.01-1.541 1.018-3.055.032-6.11.038-9.165.044-1.924.003-3.848.005-5.771-.021-.803-.012-1.667-.07-1.873-1.063-.201-.969.341-1.471 1.272-1.611 2.159-.326 2.591-1.848 2.635-3.709.312-13.123.295-26.244.026-39.368-.041-1.967-.673-3.28-2.688-3.687-.867-.175-1.505-.539-1.391-1.556.119-1.066.943-1.146 1.753-1.15 3.508-.016 7.017.032 10.523-.028 1.988-.034 2.098 1.182 2.092 2.678-.025 7.016-.011 14.032-.011 21.048l.055-.001zM515.529 96.616c2.801-5.997 4.875-12.066 6.564-18.277.638-2.347.189-3.711-2.103-4.455-.752-.244-1.646-.462-1.42-1.531.221-1.044 1.179-.906 1.934-.913 2.941-.028 5.884-.013 8.825 0 .693.003 1.418.067 1.548.947.12.818-.379 1.222-1.118 1.42-2.389.64-3.226 2.525-3.955 4.653a3112.8 3112.8 0 01-10.812 31.001c-.411 1.162-.409 2.72-2.285 2.982-2.195.309-2.976-.849-3.596-2.652-2.973-8.644-6.019-17.263-9.048-25.887-.598-1.704-1.292-3.375-1.847-5.093-.724-2.243-1.768-4.165-4.175-4.979-.669-.227-1.324-.579-1.21-1.4.116-.832.861-.977 1.557-.978 5.657-.011 11.314-.012 16.973.009.694.002 1.401.188 1.434 1.082.023.656-.503.886-1.018 1.182-3.44 1.984-3.492 2.02-2.246 5.692 1.952 5.749 3.994 11.467 5.998 17.197zM315.616 74.757c2.135-2.734 4.527-4.157 7.52-4.134 2.093.017 4.074.604 5.018 2.783.508 1.17-1.287 6.113-2.389 6.785-1.058.644-1.902.078-2.796-.471-5.387-3.312-7.485-2.232-7.564 4.065-.085 6.773 0 13.549.089 20.323.03 2.317.237 4.663 3.41 4.872.772.051 1.237.504 1.22 1.317-.018.825-.551 1.263-1.293 1.267-5.418.034-10.837.036-16.257.02-.71-.002-1.344-.298-1.467-1.109-.12-.785.254-1.372 1.029-1.472 2.611-.338 2.791-2.306 2.866-4.268.34-8.802.288-17.605.036-26.409-.058-2.028-.378-3.874-2.905-4.247-.9-.133-1.434-.692-1.219-1.664.182-.82.881-.961 1.58-.963 3.726-.01 7.451.012 11.177-.001 1.967-.008 1.559 1.755 1.945 3.306zM343.412 88.839c.206 4.642-.345 10.177.307 15.691.24 2.037.25 4.163 3.041 4.522.798.103 1.045.855.835 1.577-.276.946-1.132.984-1.936.987-3.724.012-7.447.015-11.172.015-1.241 0-2.482-.002-3.724-.034-.851-.021-1.595-.268-1.651-1.289-.046-.811.447-1.271 1.204-1.343 2.439-.234 2.774-2.045 2.842-3.908.327-9.136.319-18.274.019-27.412-.057-1.718-.587-3.1-2.525-3.485-.798-.158-1.589-.442-1.515-1.481.094-1.288 1.121-1.238 2.01-1.245 3.272-.025 6.547.053 9.817-.037 1.982-.055 2.498.884 2.472 2.68-.071 4.628-.024 9.256-.024 14.762zM489.548 88.203c.096 5.246-.207 11.016.378 16.775.197 1.94.471 3.633 2.809 3.966.96.137 1.409.684 1.232 1.64-.155.842-.866.999-1.556 1.002-5.092.021-10.186.021-15.277.01-.707-.001-1.376-.175-1.502-1.032-.135-.917.181-1.515 1.196-1.652 2.431-.332 2.684-2.344 2.704-4.094.104-8.939.086-17.88.025-26.82-.013-1.912-.667-3.577-2.968-3.901-.919-.129-1.413-.726-1.224-1.676.165-.823.861-.975 1.57-.976 3.62-.004 7.242 0 10.862.015 1.889.007 1.741 1.4 1.745 2.646.014 4.525.006 9.052.006 14.097zM338.096 58.097c3.067.098 5.837 2.946 5.803 5.969-.036 3.188-3.052 6.143-6.142 6.019-3.221-.129-5.858-3.074-5.713-6.379.141-3.191 2.857-5.709 6.052-5.609zM484.023 70.094c-3.201-.065-5.838-2.972-5.727-6.312.107-3.208 2.761-5.753 5.93-5.685 3.12.066 5.771 2.77 5.773 5.889.004 3.275-2.83 6.172-5.976 6.108z"></path>
  </g>
</svg>