<?xml version="1.0" encoding="UTF-8"?>
<svg xmlns="http://www.w3.org/2000/svg" id="Solid" viewBox="0 0 64 64" width="512" height="512"><path d="M60,28.5H45.062L58,21.03a3.5,3.5,0,0,0,1.281-4.78h0a3.5,3.5,0,0,0-4.78-1.281L41.562,22.438,49.031,9.5a3.5,3.5,0,0,0-1.281-4.78h0A3.5,3.5,0,0,0,42.969,6L35.5,18.938V4A3.5,3.5,0,0,0,32,.5h0A3.5,3.5,0,0,0,28.5,4V18.938L21.031,6a3.5,3.5,0,0,0-4.78-1.281h0A3.5,3.5,0,0,0,14.969,9.5l7.468,12.937L9.5,14.969A3.5,3.5,0,0,0,4.72,16.25h0A3.5,3.5,0,0,0,6,21.03L18.938,28.5H4A3.5,3.5,0,0,0,.5,32v0A3.5,3.5,0,0,0,4,35.5H18.938L6,42.97A3.5,3.5,0,0,0,4.72,47.75h0A3.5,3.5,0,0,0,9.5,49.031l12.937-7.468L14.969,54.5a3.5,3.5,0,0,0,1.281,4.78h0A3.5,3.5,0,0,0,21.031,58L28.5,45.063V60A3.5,3.5,0,0,0,32,63.5h0A3.5,3.5,0,0,0,35.5,60V45.063L42.969,58a3.5,3.5,0,0,0,4.78,1.281h0a3.5,3.5,0,0,0,1.281-4.78L41.562,41.563,54.5,49.031a3.5,3.5,0,0,0,4.78-1.281h0A3.5,3.5,0,0,0,58,42.97L45.062,35.5H60A3.5,3.5,0,0,0,63.5,32v0A3.5,3.5,0,0,0,60,28.5Z" fill="#ffffff" /></svg>
