<svg width="424" height="513" viewBox="0 0 424 513" fill="none" xmlns="http://www.w3.org/2000/svg">
<g clip-path="url(#clip0_2_57)">
<path d="M314.324 179.514C319.001 180.081 323.254 176.745 323.819 172.067C331.982 104.51 279.134 45.3005 211.574 45.3005C149.227 45.3005 98.5056 96.0233 98.5056 158.369C98.5056 220.714 149.227 271.437 211.574 271.437C248.592 271.437 283.322 253.267 304.476 222.832C307.166 218.962 306.21 213.645 302.34 210.955C298.472 208.266 293.152 209.222 290.462 213.091C272.496 238.938 243.006 254.37 211.574 254.37C158.639 254.37 115.572 211.304 115.572 158.369C115.572 105.434 158.639 62.3674 211.574 62.3674C268.795 62.3674 313.833 112.502 306.876 170.019C306.311 174.697 309.645 178.949 314.324 179.514Z" fill="black"/>
<path d="M263.219 393.009H261.398V308.207C323.502 287.506 369.441 228.91 369.441 158.369C369.441 71.3201 298.621 0.5 211.573 0.5C124.524 0.5 53.7041 71.3201 53.7041 158.369C53.7041 243.913 121.696 313.684 206.887 316.169C211.609 316.315 215.529 312.599 215.666 307.888C215.803 303.177 212.095 299.247 207.385 299.11C130.78 296.874 70.772 235.053 70.772 158.369C70.772 80.7303 133.936 17.5669 211.574 17.5669C289.212 17.5669 352.376 80.7303 352.376 158.369C352.376 220.841 310.487 276.499 250.511 293.72C246.853 294.77 244.333 298.117 244.333 301.921V401.543C244.333 406.255 248.153 410.076 252.866 410.076H263.22C267.13 410.076 269.438 414.444 267.233 417.674L215.588 493.32C213.662 496.14 209.495 496.15 207.563 493.32L155.918 417.674C153.714 414.445 156.019 410.076 159.93 410.076H170.285C174.997 410.076 178.818 406.255 178.818 401.543V348.409C178.818 343.697 174.997 339.876 170.285 339.876C165.572 339.876 161.751 343.697 161.751 348.409V393.009H159.93C142.333 393.009 131.894 412.755 141.823 427.298L193.468 502.944C202.153 515.665 220.97 515.705 229.683 502.944L281.328 427.298C291.249 412.764 280.829 393.009 263.219 393.009Z" fill="black"/>
<path d="M94.9974 355.575V303.484C94.9974 298.771 91.1765 294.951 86.4639 294.951C81.7513 294.951 77.9305 298.771 77.9305 303.484V363.312C77.9305 368.025 81.7513 371.845 86.4639 371.845H89.201C92.6336 371.845 94.6614 375.681 92.7243 378.517L58.7974 428.21C57.1003 430.695 53.4491 430.698 51.7499 428.21L17.8231 378.517C15.8881 375.683 17.9116 371.845 21.3463 371.845H24.0834C28.796 371.845 32.6168 368.025 32.6168 363.312V222.369C32.6168 217.657 28.796 213.836 24.0834 213.836C19.3708 213.836 15.55 217.657 15.55 222.369V355.575C1.6298 359.489 -4.54415 376.026 3.72795 388.141L37.6548 437.833C46.1039 450.21 64.4146 450.251 72.8926 437.833L106.819 388.141C115.088 376.03 108.924 359.49 94.9974 355.575Z" fill="black"/>
<path d="M407.595 355.575V222.369C407.595 217.657 403.775 213.836 399.062 213.836C394.349 213.836 390.529 217.657 390.529 222.369V363.312C390.529 368.025 394.349 371.845 399.062 371.845H401.799C405.231 371.845 407.259 375.681 405.322 378.517L371.395 428.21C369.698 430.695 366.047 430.698 364.348 428.21L330.421 378.517C328.485 375.682 330.51 371.845 333.944 371.845H336.681C341.394 371.845 345.215 368.025 345.215 363.312V303.484C345.215 298.771 341.394 294.951 336.681 294.951C331.969 294.951 328.148 298.771 328.148 303.484V355.575C314.193 359.499 308.071 376.05 316.326 388.141L350.253 437.833C358.703 450.212 377.014 450.25 385.491 437.833L419.417 388.141C427.703 376.004 421.495 359.483 407.595 355.575Z" fill="#0073E6"/>
<path d="M211.574 239.436C216.286 239.436 220.107 235.616 220.107 230.903V219.479C238.921 216.251 253.091 202.626 253.091 186.354C253.091 160.756 230.051 156.084 213.228 152.672C193.258 148.621 187.04 145.755 187.04 135.716C187.04 126.617 198.256 118.929 211.532 118.929C220.596 118.929 228.918 122.442 233.253 128.096C236.12 131.837 241.475 132.545 245.217 129.677C248.957 126.81 249.665 121.454 246.798 117.713C240.726 109.793 231.1 104.431 220.107 102.583V91.1678C220.107 86.4552 216.286 82.6344 211.574 82.6344C206.861 82.6344 203.04 86.4552 203.04 91.1678V102.576C184.184 105.778 169.973 119.42 169.973 135.716C169.973 161.314 193.014 165.986 209.836 169.398C229.807 173.448 236.024 176.314 236.024 186.354C236.024 195.453 224.808 203.14 211.532 203.14C202.469 203.14 194.146 199.628 189.811 193.973C186.944 190.233 181.589 189.524 177.848 192.393C174.108 195.26 173.399 200.616 176.267 204.356C182.353 212.297 192.012 217.666 203.04 219.502V230.903C203.04 235.616 206.86 239.436 211.574 239.436Z" fill="#0073E6"/>
</g>
<defs>
<clipPath id="clip0_2_57">
<rect width="424" height="513" fill="white"/>
</clipPath>
</defs>
</svg>
