<svg xmlns="http://www.w3.org/2000/svg" xmlns:svg="http://www.w3.org/2000/svg" version="1.1" id="svg3231" xml:space="preserve" width="67" height="70" viewBox="0 0 682.66669 682.66669"><defs id="defs3235"><clipPath clipPathUnits="userSpaceOnUse" id="clipPath3245"><path d="M 0,512 H 512 V 0 H 0 Z" id="path3243"/></clipPath></defs><g id="g3237" transform="matrix(1.3333333,0,0,-1.3333333,0,682.66667)"><g id="g3239"><g id="g3241" clip-path="url(#clipPath3245)"><g id="g3247" transform="translate(364.6135,477.4796)"><path d="m 0,0 c -32.894,15.719 -69.726,24.52 -108.614,24.52 -120.08,0 -220.564,-83.921 -246,-196.31 21.461,20.083 50.281,32.384 81.991,32.384 31.711,0 60.544,-12.301 82.005,-32.384 21.461,20.083 50.294,32.384 82.004,32.384 31.711,0 60.544,-12.301 82.005,-32.384 21.461,20.083 50.294,32.384 82.005,32.384 31.71,0 60.53,-12.301 81.99,-32.384 -10.356,45.761 -33.154,86.803 -64.651,119.381" style="fill:none;stroke:#000000;stroke-width:20;stroke-linecap:round;stroke-linejoin:round;stroke-miterlimit:10;stroke-dasharray:none;stroke-opacity:1" id="path3249"/></g><g id="g3251" transform="translate(173.9952,307.6667)"><path d="m 0,0 c 8.479,111.257 41.976,194.333 82.005,194.333 40.029,0 73.526,-83.076 82.005,-194.333" style="fill:none;stroke:#000000;stroke-width:20;stroke-linecap:round;stroke-linejoin:round;stroke-miterlimit:10;stroke-dasharray:none;stroke-opacity:1" id="path3253"/></g><g id="g3255" transform="translate(256,336)"><path d="M 0,0 V -108.357" style="fill:none;stroke:#000000;stroke-width:20;stroke-linecap:round;stroke-linejoin:round;stroke-miterlimit:10;stroke-dasharray:none;stroke-opacity:1" id="path3257"/></g><g id="g3259" transform="translate(293.426,183.9989)"><path d="M 0,0 H 104.575 V -58 H 12.809" style="fill:none;stroke:#000000;stroke-width:20;stroke-linecap:round;stroke-linejoin:round;stroke-miterlimit:10;stroke-dasharray:none;stroke-opacity:1" id="path3261"/></g><g id="g3263" transform="translate(398,126)"><path d="M 0,0 V -58" style="fill:none;stroke:#000000;stroke-width:20;stroke-linecap:round;stroke-linejoin:round;stroke-miterlimit:10;stroke-dasharray:none;stroke-opacity:1" id="path3265"/></g><g id="g3267" transform="translate(288.9977,68)"><path d="M 0,0 H 109.002 V -58 H -102.762" style="fill:none;stroke:#000000;stroke-width:20;stroke-linecap:round;stroke-linejoin:round;stroke-miterlimit:10;stroke-dasharray:none;stroke-opacity:1" id="path3269"/></g><g id="g3271" transform="translate(186.2353,10)"><path d="M 0,0 C 66.274,0 120,53.726 120,120 120,186.274 66.274,240 0,240 -66.274,240 -120,186.274 -120,120 -120,53.726 -66.274,0 0,0 Z" style="fill:none;stroke:#000000;stroke-width:20;stroke-linecap:round;stroke-linejoin:round;stroke-miterlimit:10;stroke-dasharray:none;stroke-opacity:1" id="path3273"/></g><g id="g3275" transform="translate(211.0642,185.0448)"><path d="m 0,0 c 0,0 -16.314,12.36 -35.913,6.472 -20.005,-6.01 -24.967,-33.39 -11.376,-44.05 7.804,-6.121 19.547,-11.154 35.372,-16.748 35.42,-12.52 22.327,-62.472 -13.703,-62.711 -14.06,-0.094 -20.634,0.798 -32.985,8.878" style="fill:none;stroke:#0073e6;stroke-width:20;stroke-linecap:round;stroke-linejoin:round;stroke-miterlimit:10;stroke-dasharray:none;stroke-opacity:1" id="path3277"/></g><g id="g3279" transform="translate(186.2353,210.2258)"><path d="M 0,0 V -160.452" style="fill:none;stroke:#0073e6;stroke-width:20;stroke-linecap:round;stroke-linejoin:round;stroke-miterlimit:10;stroke-dasharray:none;stroke-opacity:1" id="path3281"/></g><g id="g3283" transform="translate(403.3205,454.5202)"><path d="M 0,0 V 0" style="fill:none;stroke:#000000;stroke-width:20;stroke-linecap:round;stroke-linejoin:round;stroke-miterlimit:10;stroke-dasharray:none;stroke-opacity:1" id="path3285"/></g></g></g></g></svg>