<svg width="453" height="465" viewBox="0 0 453 465" fill="none" xmlns="http://www.w3.org/2000/svg">
<g clip-path="url(#clip0_2_64)">
<path d="M390.409 212.577V95.33C390.409 67.464 367.59 44.448 339.722 44.448H333.409V36.5C333.409 16.618 317.291 0.5 297.409 0.5C277.527 0.5 261.409 16.618 261.409 36.5V44.448H129.409V36.5C129.409 16.342 113.067 0 92.9091 0C72.7511 0 56.4091 16.342 56.4091 36.5V44.448H50.9541C23.0871 44.448 0.409058 67.464 0.409058 95.33V364.554C0.409058 392.421 23.0871 415.448 50.9541 415.448H209.548C235.695 446.724 274.343 464.823 315.109 464.883C390.809 464.883 452.474 403.206 452.474 327.504C452.476 279.523 427.409 237.131 390.409 212.577ZM281.409 36.5C281.255 27.79 288.19 20.604 296.9 20.45C297.04 20.448 297.18 20.447 297.32 20.448C306.112 20.355 313.316 27.407 313.409 36.2C313.41 36.3 313.41 36.4 313.409 36.5V75.448H281.409V36.5ZM76.4091 36.5C76.5041 27.539 83.8461 20.352 92.8071 20.447C92.8231 20.447 92.8381 20.447 92.8531 20.448C101.847 20.448 109.409 27.507 109.409 36.5V75.448H76.4091V36.5ZM20.4091 95.33C20.4091 78.491 34.1151 64.448 50.9541 64.448H56.4091V85.864C56.4091 91.386 61.0211 95.448 66.5441 95.448H119.164C124.686 95.448 129.409 91.386 129.409 85.864V64.448H261.409V85.864C261.261 91.009 265.312 95.3 270.457 95.448C270.641 95.453 270.825 95.453 271.009 95.448H323.629C328.854 95.622 333.231 91.527 333.405 86.302C333.41 86.156 333.411 86.01 333.409 85.864V64.448H339.722C356.675 64.619 370.345 78.377 370.409 95.33V127.448H20.4091V95.33ZM50.9541 395.448C34.1151 395.448 20.4091 381.393 20.4091 364.554V147.448H370.409V201.702C353.002 194.059 334.196 190.117 315.185 190.124C239.485 190.124 177.858 251.891 177.858 327.593C177.82 351.376 183.967 374.759 195.697 395.448H50.9541ZM315.109 444.705C250.331 444.705 197.818 392.192 197.818 327.414C197.818 262.636 250.331 210.123 315.109 210.123C379.887 210.123 432.4 262.636 432.4 327.414V327.415C432.327 392.162 379.857 444.632 315.109 444.705Z" fill="black"/>
<path d="M362.219 327.448H318.409V267.278C318.409 261.755 313.932 257.278 308.409 257.278C302.886 257.278 298.409 261.755 298.409 267.278V337.438C298.497 342.999 303.035 347.458 308.597 347.448H362.219C367.742 347.448 372.219 342.971 372.219 337.448C372.219 331.925 367.742 327.448 362.219 327.448Z" fill="#0073E6"/>
</g>
<defs>
<clipPath id="clip0_2_64">
<rect width="453" height="465" fill="white"/>
</clipPath>
</defs>
</svg>
