<svg width="512" height="384" viewBox="0 0 512 384" fill="none" xmlns="http://www.w3.org/2000/svg">
<g clip-path="url(#clip0_2_53)">
<path d="M120 0H40C29.3952 0.0127029 19.2285 4.23106 11.7298 11.7298C4.23106 19.2285 0.0127029 29.3952 0 40L0 344C0.0127029 354.605 4.23106 364.772 11.7298 372.27C19.2285 379.769 29.3952 383.987 40 384H120C130.605 383.987 140.772 379.769 148.27 372.27C155.769 364.772 159.987 354.605 160 344V40C159.987 29.3952 155.769 19.2285 148.27 11.7298C140.772 4.23106 130.605 0.0127029 120 0ZM88 16V368H72V16H88ZM16 344V331.312L34.344 349.656L45.656 338.344L16 308.688V291.312L34.344 309.656L45.656 298.344L16 268.688V251.312L34.344 269.656L45.656 258.344L16 228.688V211.312L34.344 229.656L45.656 218.344L16 188.688V171.312L34.344 189.656L45.656 178.344L16 148.688V131.312L34.344 149.656L45.656 138.344L16 108.688V91.312L34.344 109.656L45.656 98.344L16 68.688V51.312L34.344 69.656L45.656 58.344L17.92 30.608C19.7622 26.276 22.8376 22.5814 26.7635 19.9841C30.6895 17.3867 35.2926 16.0012 40 16H56V368H40C33.6348 368 27.5303 365.471 23.0294 360.971C18.5286 356.47 16 350.365 16 344ZM120 368H104V16H120C124.707 16.0012 129.31 17.3867 133.236 19.9841C137.162 22.5814 140.238 26.276 142.08 30.608L114.344 58.344L125.656 69.656L144 51.312V68.688L114.344 98.344L125.656 109.656L144 91.312V108.688L114.344 138.344L125.656 149.656L144 131.312V148.688L114.344 178.344L125.656 189.656L144 171.312V188.688L114.344 218.344L125.656 229.656L144 211.312V228.688L114.344 258.344L125.656 269.656L144 251.312V268.688L114.344 298.344L125.656 309.656L144 291.312V308.688L114.344 338.344L125.656 349.656L144 331.312V344C144 350.365 141.471 356.47 136.971 360.971C132.47 365.471 126.365 368 120 368Z" fill="black"/>
<path d="M504 152H472C467.054 152.021 462.235 153.569 458.202 156.433C454.17 159.297 451.121 163.337 449.472 168H368V86.528C372.663 84.8793 376.703 81.8301 379.567 77.7976C382.431 73.765 383.979 68.9461 384 64V32C384 29.8783 383.157 27.8434 381.657 26.3431C380.157 24.8429 378.122 24 376 24H312C309.878 24 307.843 24.8429 306.343 26.3431C304.843 27.8434 304 29.8783 304 32V64C304.021 68.9461 305.569 73.765 308.433 77.7976C311.297 81.8301 315.337 84.8793 320 86.528V168H238.528C236.879 163.337 233.83 159.297 229.798 156.433C225.765 153.569 220.946 152.021 216 152H184C181.878 152 179.843 152.843 178.343 154.343C176.843 155.843 176 157.878 176 160V224C176 226.122 176.843 228.157 178.343 229.657C179.843 231.157 181.878 232 184 232H216C220.946 231.979 225.765 230.431 229.798 227.567C233.83 224.703 236.879 220.663 238.528 216H320V297.472C315.337 299.121 311.297 302.17 308.433 306.202C305.569 310.235 304.021 315.054 304 320V352C304 354.122 304.843 356.157 306.343 357.657C307.843 359.157 309.878 360 312 360H376C378.122 360 380.157 359.157 381.657 357.657C383.157 356.157 384 354.122 384 352V320C383.979 315.054 382.431 310.235 379.567 306.202C376.703 302.17 372.663 299.121 368 297.472V216H449.472C451.121 220.663 454.17 224.703 458.202 227.567C462.235 230.431 467.054 231.979 472 232H504C506.122 232 508.157 231.157 509.657 229.657C511.157 228.157 512 226.122 512 224V160C512 157.878 511.157 155.843 509.657 154.343C508.157 152.843 506.122 152 504 152ZM336 208V88H352V296H336V208ZM320 40H368V64C368 66.1217 367.157 68.1566 365.657 69.6569C364.157 71.1572 362.122 72 360 72H328C325.878 72 323.843 71.1572 322.343 69.6569C320.843 68.1566 320 66.1217 320 64V40ZM216 216H192V168H216C218.122 168 220.157 168.843 221.657 170.343C223.157 171.843 224 173.878 224 176V208C224 210.122 223.157 212.157 221.657 213.657C220.157 215.157 218.122 216 216 216ZM240 200V184H320V200H240ZM368 344H320V320C320 317.878 320.843 315.843 322.343 314.343C323.843 312.843 325.878 312 328 312H360C362.122 312 364.157 312.843 365.657 314.343C367.157 315.843 368 317.878 368 320V344ZM368 184H448V200H368V184ZM496 216H472C469.878 216 467.843 215.157 466.343 213.657C464.843 212.157 464 210.122 464 208V176C464 173.878 464.843 171.843 466.343 170.343C467.843 168.843 469.878 168 472 168H496V216Z" fill="#0073E6"/>
</g>
<defs>
<clipPath id="clip0_2_53">
<rect width="512" height="384" fill="white"/>
</clipPath>
</defs>
</svg>
