<svg width="102" height="97" viewBox="0 0 102 97" fill="none" xmlns="http://www.w3.org/2000/svg">
<path d="M97.8808 43.6702L93.6635 38.8154H95.4779C98.6164 38.8154 101.166 36.2654 101.166 33.1269V31.2635C101.166 28.125 98.6164 25.575 95.4779 25.575H93.8596C92.4865 25.575 91.4077 26.6538 91.4077 28.0269C91.4077 29.4 92.4865 30.4788 93.8596 30.4788H95.4779C95.9192 30.4788 96.2625 30.8221 96.2625 31.2635V33.1269C96.2625 33.5683 95.9192 33.9115 95.4779 33.9115H92.0452L88.3673 21.8971C85.9644 14.149 78.9519 9 70.8606 9H31.1394C23.0481 9 16.0356 14.1981 13.6327 21.8971L9.95481 33.9115H6.52212C6.08077 33.9115 5.7375 33.5683 5.7375 33.1269V31.2635C5.7375 30.8221 6.08077 30.4788 6.52212 30.4788H8.14038C9.51346 30.4788 10.5923 29.4 10.5923 28.0269C10.5923 26.6538 9.51346 25.575 8.14038 25.575H6.52212C3.38365 25.575 0.833654 28.125 0.833654 31.2635V33.1269C0.833654 36.2654 3.38365 38.8154 6.52212 38.8154H8.33654L4.11923 43.6702C1.47115 46.7106 0 50.6337 0 54.7038V68.7779C0 71.7692 1.66731 74.3683 4.16827 75.7413V81.2827C4.16827 85.3529 7.45385 88.6385 11.524 88.6385H19.9587C24.0288 88.6385 27.3144 85.3529 27.3144 81.2827V76.7712H74.6856V81.2827C74.6856 85.3529 77.9712 88.6385 82.0414 88.6385H90.476C94.5462 88.6385 97.8317 85.3529 97.8317 81.2827V75.7413C100.284 74.3683 102 71.8183 102 68.7779V54.7038C102 50.6337 100.529 46.7106 97.8808 43.6702ZM7.84615 46.9067L12.5538 41.5125C12.799 41.2673 12.9462 40.9731 13.0442 40.6298L14.025 37.4423C14.025 37.4423 14.1231 37.1481 14.1721 37.001L18.3894 23.3683C20.1548 17.7288 25.3038 13.9038 31.1885 13.9038H70.8606C76.7942 13.9038 81.9433 17.6798 83.6596 23.3683L87.8769 37.001C87.8769 37.001 87.926 37.2952 88.024 37.4423L89.0048 40.6298C89.1029 40.9731 89.25 41.2673 89.4952 41.5125L94.2029 46.9067C96.0663 49.0644 97.1452 51.8596 97.1452 54.7529V61.8635H85.9644C84.3462 61.8635 82.9731 60.5394 82.9731 58.8721V55.7337C82.9731 54.1154 84.2971 52.7423 85.9644 52.7423H91.9471C93.3202 52.7423 94.399 51.6635 94.399 50.2904C94.399 48.9173 93.3202 47.8385 91.9471 47.8385H85.9644C81.6 47.8385 78.0692 51.3692 78.0692 55.7337V58.8721C78.0692 63.2365 81.6 66.7673 85.9644 66.7673H97.1452V68.8269C97.1452 70.4942 95.7721 71.8673 94.1048 71.8673H68.899V63.4817C68.899 62.1087 67.8202 61.0298 66.4471 61.0298H35.651C34.2779 61.0298 33.199 62.1087 33.199 63.4817V71.8673H7.99327C6.32596 71.8673 4.95288 70.4942 4.95288 68.8269V66.7673H16.1337C20.4981 66.7673 24.0288 63.2365 24.0288 58.8721V55.7337C24.0288 51.3692 20.4981 47.8385 16.1337 47.8385H10.151C8.77789 47.8385 7.69904 48.9173 7.69904 50.2904C7.69904 51.6635 8.77789 52.7423 10.151 52.7423H16.1337C17.7519 52.7423 19.125 54.0663 19.125 55.7337V58.8721C19.125 60.4904 17.801 61.8635 16.1337 61.8635H4.95288V54.7529C4.95288 51.8596 5.98269 49.1135 7.89519 46.9067H7.84615ZM22.4106 81.2337C22.4106 82.6067 21.3317 83.6856 19.9587 83.6856H11.524C10.151 83.6856 9.07212 82.6067 9.07212 81.2337V76.7221H22.4106V81.2337ZM38.0538 71.8183V65.8846H63.9462V71.8183H38.0538ZM92.9279 81.2337C92.9279 82.6067 91.849 83.6856 90.476 83.6856H82.0414C80.6683 83.6856 79.5894 82.6067 79.5894 81.2337V76.7221H92.9279V81.2337Z" fill="black"/>
<path d="M21.5279 38.7663H80.4721C81.8452 38.7663 82.924 37.6875 82.924 36.3144C82.924 34.9413 81.8452 33.8625 80.4721 33.8625H21.5279C20.1548 33.8625 19.0759 34.9413 19.0759 36.3144C19.0759 37.6875 20.1548 38.7663 21.5279 38.7663Z" fill="#0073e6"/>
<path d="M71.0567 47.7894H30.9433C29.5702 47.7894 28.4913 48.8682 28.4913 50.2413C28.4913 51.6144 29.5702 52.6932 30.9433 52.6932H71.0567C72.4298 52.6932 73.5086 51.6144 73.5086 50.2413C73.5086 48.8682 72.4298 47.7894 71.0567 47.7894Z" fill="#0073e6"/>
</svg>
