<svg width="90" height="70" viewBox="0 0 90 70" fill="none" xmlns="http://www.w3.org/2000/svg">
<g clip-path="url(#clip0_2_9)">
<path d="M89.0881 16.8382L58.8538 0.236523C58.3271 -0.0525551 57.6885 -0.0525551 57.1619 0.236523L45.7924 6.4795C45.5356 6.55091 45.2959 6.68206 45.0927 6.86334L26.9275 16.8382C26.3651 17.1472 26.0156 17.7377 26.0156 18.3791V21.973H5.73486C4.76395 21.973 3.97705 22.7606 3.97705 23.7308C3.97705 24.7017 4.76395 25.4886 5.73486 25.4886H26.0156V31.8167H15.9377C14.9668 31.8167 14.1799 32.6043 14.1799 33.5745C14.1799 34.5454 14.9668 35.3323 15.9377 35.3323H26.0156V44.473H11.25C10.2791 44.473 9.49219 45.2606 9.49219 46.2308C9.49219 47.2017 10.2791 47.9886 11.25 47.9886H26.0156V51.5832C26.0156 52.2245 26.3651 52.815 26.9275 53.124L57.1619 69.7257C57.4255 69.8706 57.7167 69.9427 58.0078 69.9427C58.299 69.9427 58.5901 69.8706 58.8538 69.7257L89.0881 53.124C89.6505 52.815 90 52.2245 90 51.5832V43.7115C90 42.7412 89.2131 41.9537 88.2422 41.9537C87.2713 41.9537 86.4844 42.7412 86.4844 43.7115V50.5429L59.7656 65.2145V36.0211L68.2629 31.3553V38.7601C68.2629 39.3822 68.5911 39.9576 69.126 40.2734C69.4013 40.4362 69.711 40.5179 70.0207 40.5179C70.3118 40.5179 70.6036 40.4458 70.868 40.3002L77.3472 36.7345C77.9082 36.4255 78.257 35.8357 78.257 35.1943V25.8676L86.4844 21.3502V29.649C86.4844 30.6199 87.2713 31.4068 88.2422 31.4068C89.2131 31.4068 90 30.6199 90 29.649V18.3791C90 17.7377 89.6505 17.1472 89.0881 16.8382ZM56.25 65.2145L29.5312 50.5429V21.3502L56.25 36.0211V65.2145ZM58.0078 32.9758L31.4257 18.3791L39.7801 13.7916L66.3629 28.3883L58.0078 32.9758ZM70.0152 26.3826L43.4324 11.7859L46.3142 10.2039L72.8963 24.8006L70.0152 26.3826ZM74.7414 34.1554L71.7785 35.7862V29.4251L74.7414 27.7978V34.1554ZM76.5486 22.7949L49.9665 8.19818L58.0078 3.78305L84.5899 18.3791L76.5486 22.7949Z" fill="black"/>
<path d="M88.2422 34.9231C87.7801 34.9231 87.3262 35.1092 86.9994 35.4381C86.6725 35.7649 86.4844 36.2167 86.4844 36.6809C86.4844 37.143 86.6725 37.5969 86.9994 37.9237C87.3262 38.2506 87.7801 38.4387 88.2422 38.4387C88.7043 38.4387 89.1582 38.2506 89.485 37.9237C89.8119 37.5969 90 37.143 90 36.6809C90 36.2167 89.8119 35.7649 89.485 35.4381C89.1582 35.1092 88.7043 34.9231 88.2422 34.9231Z" fill="black"/>
<path d="M4.27711 44.473H1.75781C0.786896 44.473 0 45.2605 0 46.2308C0 47.2017 0.786896 47.9886 1.75781 47.9886H4.27711C5.24803 47.9886 6.03493 47.2017 6.03493 46.2308C6.03493 45.2605 5.24803 44.473 4.27711 44.473Z" fill="#0073E6"/>
<path d="M10.665 33.5745C10.665 33.1124 10.4768 32.6592 10.1493 32.3324C9.82246 32.0049 9.36928 31.8167 8.90717 31.8167C8.44437 31.8167 7.99118 32.0049 7.66434 32.3324C7.33543 32.6592 7.14935 33.1124 7.14935 33.5745C7.14935 34.0373 7.33543 34.4905 7.66434 34.8174C7.99118 35.1442 8.44437 35.3323 8.90717 35.3323C9.36928 35.3323 9.82246 35.1449 10.1493 34.8174C10.4768 34.4905 10.665 34.0373 10.665 33.5745Z" fill="#0073E6"/>
</g>
<defs>
<clipPath id="clip0_2_9">
<rect width="90" height="70" fill="white"/>
</clipPath>
</defs>
</svg>
