<svg width="498" height="416" viewBox="0 0 498 416" fill="none" xmlns="http://www.w3.org/2000/svg">
<g clip-path="url(#clip0_2_114)">
<path fill-rule="evenodd" clip-rule="evenodd" d="M331.871 313.518L251.456 335.394C248.854 336.102 246.294 336.543 243.747 336.716C244.762 335.461 245.702 334.091 246.558 332.609C254.099 319.548 249.696 302.631 236.535 294.096C236.232 293.9 235.917 293.724 235.591 293.571C216.688 284.667 198.93 272.29 184.661 262.344C179.676 258.869 174.966 255.586 170.905 252.952C154.105 242.053 135.671 244.942 119.854 249.206L61.65 264.896L60.088 258.857C57.519 248.927 47.349 242.938 37.419 245.507L14.941 251.323C5.01201 253.893 -0.975986 264.063 1.59201 273.992L31.805 390.75C33.047 395.549 36.093 399.583 40.382 402.109C43.29 403.821 46.526 404.697 49.804 404.697C51.362 404.697 52.929 404.499 54.474 404.099L76.951 398.283C81.75 397.041 85.784 393.995 88.31 389.706C90.835 385.417 91.542 380.412 90.3 375.613L86.981 362.786L98.417 359.722L180.534 407.132C189.671 412.408 199.407 415.073 209.294 415.073C214.75 415.073 220.252 414.261 225.723 412.628L372.784 368.723C386.988 364.483 395.941 346.66 391.568 331.328C389.454 323.919 378.903 300.725 331.871 313.518ZM74.523 381.59C74.316 381.941 73.836 382.565 72.943 382.796L50.466 388.612C49.574 388.842 48.851 388.531 48.5 388.324C48.149 388.117 47.526 387.637 47.294 386.744L17.082 269.986C16.728 268.62 17.584 267.167 18.949 266.814L41.425 260.998C41.649 260.94 41.861 260.916 42.06 260.916C42.656 260.916 43.129 261.13 43.392 261.286C43.743 261.493 44.367 261.973 44.597 262.865L74.81 379.624C75.042 380.517 74.73 381.239 74.523 381.59ZM368.208 353.396L221.148 397.3C209.927 400.649 198.955 399.296 188.535 393.279L103.548 344.212C101.711 343.151 99.527 342.865 97.478 343.413L82.974 347.299L65.659 280.387L124.018 264.655C137.053 261.141 150.699 258.917 162.198 266.376C166.036 268.866 170.428 271.926 175.512 275.471C190.141 285.668 208.316 298.335 228.228 307.789C234.033 311.81 235.964 318.96 232.702 324.61C229.444 330.253 224.317 331.95 217.446 329.666C206.74 324.434 178.768 307.737 174.092 305.038C170.264 302.828 165.372 304.141 163.164 307.966C160.955 311.793 162.266 316.685 166.093 318.894C170.668 321.535 215.578 346.501 217.836 347.511C230.572 353.205 242.943 354.292 255.657 350.834L336.072 328.958C357.929 323.012 373.299 325.605 376.184 335.722C378.136 342.57 374.038 351.655 368.208 353.396ZM40.835 278.204C40.372 282.161 36.788 284.993 32.831 284.529C28.874 284.065 26.042 280.482 26.506 276.524C26.97 272.567 30.553 269.735 34.51 270.198C38.467 270.663 41.299 274.247 40.835 278.204ZM496.408 142.006L466.194 25.248C463.625 15.318 453.457 9.32796 443.525 11.899L421.049 17.715C416.25 18.957 412.216 22.003 409.69 26.292C407.165 30.581 406.458 35.586 407.7 40.385L411.019 53.211L399.583 56.275L317.466 8.86496C303.289 0.677959 287.663 -1.22404 272.276 3.36796L125.215 47.273C111.011 51.513 102.058 69.336 106.431 84.667C108.545 92.081 119.098 115.274 166.129 102.481L246.544 80.606C249.146 79.898 251.706 79.457 254.253 79.284C253.238 80.539 252.298 81.909 251.442 83.391C243.901 96.453 248.304 113.369 261.466 121.904C261.768 122.1 262.083 122.275 262.409 122.429C281.311 131.334 299.07 143.711 313.338 153.656C318.324 157.131 323.033 160.414 327.095 163.048C335.736 168.654 344.807 170.611 353.734 170.611C362.163 170.611 370.464 168.864 378.146 166.794L436.349 151.104L437.911 157.142C440.078 165.516 447.648 171.086 455.923 171.086C457.461 171.086 459.024 170.893 460.58 170.49L483.057 164.674C492.988 162.107 498.976 151.937 496.408 142.006ZM373.982 151.346C360.946 154.859 347.3 157.083 335.802 149.625C331.963 147.135 327.572 144.074 322.487 140.53C307.858 130.333 289.683 117.666 269.771 108.212C263.967 104.191 262.036 97.042 265.298 91.391C268.556 85.749 273.682 84.052 280.555 86.336C291.263 91.569 319.234 108.265 323.908 110.964C327.734 113.172 332.626 111.862 334.836 108.036C337.045 104.209 335.734 99.317 331.908 97.108C327.335 94.468 282.422 69.501 280.165 68.491C267.428 62.797 255.057 61.709 242.344 65.168L161.929 87.044C140.073 92.989 124.702 90.398 121.817 80.28C119.863 73.43 123.963 64.346 129.792 62.606L276.851 18.7C288.072 15.351 299.044 16.704 309.464 22.721L394.451 71.788C396.289 72.849 398.473 73.136 400.521 72.587L415.025 68.701L432.339 135.614L373.982 151.346ZM479.05 149.186L456.573 155.002C455.679 155.233 454.957 154.92 454.607 154.714C454.256 154.507 453.632 154.027 453.401 153.134L423.188 36.376C422.957 35.483 423.27 34.761 423.476 34.41C423.683 34.059 424.163 33.435 425.057 33.204L447.533 27.388C448.9 27.033 450.351 27.89 450.705 29.256L480.917 146.014C481.271 147.38 480.416 148.833 479.05 149.186ZM471.494 139.475C471.03 143.432 467.447 146.264 463.49 145.801C459.533 145.338 456.701 141.754 457.165 137.797C457.628 133.84 461.212 131.008 465.169 131.471C469.126 131.934 471.957 135.518 471.494 139.475Z" fill="black"/>
<path fill-rule="evenodd" clip-rule="evenodd" d="M187.374 191.882C199.953 191.882 210.186 181.648 210.186 169.069C210.186 156.49 199.952 146.257 187.374 146.257C174.795 146.257 164.561 156.491 164.561 169.07C164.562 181.649 174.796 191.882 187.374 191.882ZM187.374 162.257C191.13 162.257 194.186 165.313 194.186 169.069C194.186 172.826 191.13 175.882 187.374 175.882C183.618 175.882 180.561 172.825 180.561 169.069C180.561 165.313 183.618 162.257 187.374 162.257ZM168.903 225.171C185.931 235.002 206.606 235.469 223.956 226.677L259.983 247.477C261.941 248.607 264.283 248.857 266.433 248.165L276.316 244.985L278.504 255.134C278.98 257.342 280.368 259.246 282.324 260.376C284.28 261.506 286.622 261.756 288.774 261.064L298.657 257.884L300.845 268.033C301.321 270.241 302.709 272.145 304.665 273.275L312.261 277.661C313.487 278.369 314.867 278.733 316.261 278.733C316.86 278.733 317.462 278.666 318.054 278.529L351.807 270.767C353.972 270.269 355.832 268.894 356.942 266.971C358.052 265.048 358.313 262.749 357.662 260.625L347.507 227.513C346.914 225.579 345.61 223.942 343.859 222.93L255.553 171.946C254.492 152.525 243.75 134.853 226.722 125.022C199.112 109.082 163.679 118.575 147.737 146.186C131.798 173.797 141.292 209.229 168.903 225.171ZM161.596 154.186C173.126 134.216 198.753 127.349 218.724 138.879C232.068 146.583 240.076 160.948 239.623 176.368C239.537 179.309 241.072 182.06 243.62 183.531L333.136 235.213L339.848 257.1L317.537 262.231L315.739 261.193L312.437 245.878C311.961 243.67 310.573 241.765 308.617 240.636C306.661 239.507 304.319 239.257 302.167 239.948L292.284 243.128L290.096 232.979C289.62 230.771 288.232 228.867 286.276 227.737C284.32 226.608 281.977 226.357 279.826 227.049L264.912 231.847L228.022 210.549C225.476 209.079 222.326 209.125 219.82 210.67C206.691 218.772 190.247 219.019 176.904 211.316C156.933 199.784 150.066 174.156 161.596 154.186Z" fill="#0073E6"/>
</g>
<defs>
<clipPath id="clip0_2_114">
<rect width="498" height="416" fill="white"/>
</clipPath>
</defs>
</svg>
