<svg width="683" height="684" viewBox="0 0 683 684" fill="none" xmlns="http://www.w3.org/2000/svg">
<g clip-path="url(#clip0_2_91)">
<mask id="mask0_2_91" style="mask-type:luminance" maskUnits="userSpaceOnUse" x="0" y="0" width="683" height="684">
<path d="M0 0.500061H682.667V683.167H0V0.500061Z" fill="white"/>
</mask>
<g mask="url(#mask0_2_91)">
<path d="M592.768 129.405C576.105 146.068 549.09 146.068 532.428 129.405C515.765 112.743 515.765 85.7281 532.428 69.0655C549.09 52.4028 576.105 52.4028 592.768 69.0655C609.43 85.7281 609.43 112.743 592.768 129.405Z" stroke="black" stroke-width="26.6667" stroke-miterlimit="10" stroke-linecap="round" stroke-linejoin="round"/>
<path d="M150.239 614.601C133.576 631.264 106.562 631.264 89.8989 614.601C73.2362 597.938 73.2362 570.924 89.8989 554.261C106.562 537.598 133.576 537.598 150.239 554.261C166.902 570.924 166.902 597.938 150.239 614.601Z" stroke="#0073E6" stroke-width="26.6667" stroke-miterlimit="10" stroke-linecap="round" stroke-linejoin="round"/>
<path d="M276.65 663.456C297.562 667.639 319.191 669.833 341.334 669.833C522.483 669.833 669.334 522.983 669.334 341.833C669.334 262.755 641.344 190.216 594.738 133.572" stroke="black" stroke-width="26.6667" stroke-miterlimit="10" stroke-linecap="round" stroke-linejoin="round"/>
<path d="M406.639 20.336C385.534 16.072 363.695 13.8333 341.333 13.8333C160.183 13.8333 13.3328 160.684 13.3328 341.833C13.3328 420.912 41.3221 493.451 87.9288 550.095" stroke="#0073E6" stroke-width="26.6667" stroke-miterlimit="10" stroke-linecap="round" stroke-linejoin="round"/>
<path d="M341.333 438.673C287.851 438.673 244.493 395.317 244.493 341.833C244.493 288.35 287.851 244.994 341.333 244.994C394.816 244.994 438.173 288.35 438.173 341.833C438.173 395.317 394.816 438.673 341.333 438.673ZM534.447 300.029C529.367 276.386 520.064 254.313 507.353 234.645L532.9 209.097L473.928 150.167L448.401 175.694C428.733 162.983 406.661 153.681 383.019 148.602V112.499H299.648V148.602C276.005 153.681 253.933 162.983 234.265 175.694L208.739 150.167L149.767 209.097L175.313 234.645C162.603 254.313 153.3 276.386 148.22 300.029H112.023L111.977 383.398H148.219C153.299 407.041 162.601 429.114 175.312 448.783L149.668 474.427L208.597 533.401L234.263 507.734C253.932 520.446 276.005 529.749 299.648 534.829V571.166H383.019V534.829C406.661 529.749 428.735 520.446 448.404 507.734L474.069 533.401L532.999 474.427L507.355 448.783C520.065 429.114 529.368 407.041 534.448 383.398H570.689V300.029H534.447Z" stroke="black" stroke-width="26.6667" stroke-miterlimit="10" stroke-linecap="round" stroke-linejoin="round"/>
</g>
</g>
<defs>
<clipPath id="clip0_2_91">
<rect width="683" height="684" fill="white"/>
</clipPath>
</defs>
</svg>
