<svg width="512" height="512" viewBox="0 0 512 512" fill="none" xmlns="http://www.w3.org/2000/svg">
<g clip-path="url(#clip0_2_86)">
<path d="M323.26 50.5003C321.067 43.904 315.529 39.0741 308.813 37.9136L284.126 33.6384L272.538 10.3595C269.338 3.97653 263.006 0 256 0C248.994 0 242.662 3.97653 239.462 10.368L227.874 33.6469L203.196 37.9221C196.471 39.0827 190.925 43.904 188.74 50.5088C186.479 57.2843 188.1 64.6741 192.956 69.8197L210.705 88.6101L206.933 114.773C205.892 121.958 208.879 128.998 214.716 133.137C217.873 135.381 221.568 136.516 225.271 136.516C228.147 136.516 231.04 135.834 233.694 134.443L255.991 122.829L278.289 134.443C284.382 137.634 291.661 137.114 297.276 133.137C303.121 128.998 306.099 121.95 305.058 114.773L301.286 88.6101L319.036 69.8197C323.891 64.6741 325.513 57.2843 323.251 50.5088L323.26 50.5003ZM306.645 58.0949L286.063 79.8891C284.271 81.7835 283.443 84.3861 283.819 86.9632L288.188 117.205C288.358 118.417 287.701 119.014 287.42 119.219C286.822 119.62 286.413 119.424 286.182 119.313L259.942 105.634C257.476 104.354 254.524 104.354 252.058 105.634L225.818 119.313C225.587 119.433 225.169 119.62 224.58 119.219C224.299 119.014 223.65 118.409 223.812 117.205L228.181 86.9632C228.557 84.3861 227.729 81.7835 225.937 79.8891L205.355 58.0949C204.578 57.2672 204.8 56.2773 204.928 55.8933C205.15 55.2192 205.542 54.8352 206.106 54.7328L235.051 49.7152C237.722 49.2459 240.017 47.5392 241.237 45.1072L254.754 17.9712C254.865 17.7493 255.206 17.0667 256 17.0667C256.794 17.0667 257.143 17.7408 257.246 17.9627L270.763 45.1072C271.983 47.5392 274.27 49.2459 276.949 49.7152L305.903 54.7328C306.449 54.8352 306.842 55.2192 307.072 55.8933C307.209 56.2773 307.422 57.2672 306.645 58.0949Z" fill="#0073E6"/>
<path d="M169.66 118.767C167.467 112.171 161.929 107.341 155.213 106.18L130.526 101.905L118.938 78.6261C115.755 72.2432 109.423 68.2667 102.409 68.2667C95.3942 68.2667 89.071 72.2432 85.871 78.6347L74.2827 101.914L49.6043 106.189C42.88 107.349 37.3334 112.171 35.1488 118.775C32.8875 125.551 34.5088 132.941 39.3643 138.086L57.1136 156.877L53.3419 183.04C52.3008 190.225 55.2875 197.265 61.1243 201.404C64.2816 203.648 67.9766 204.783 71.68 204.783C74.5558 204.783 77.4486 204.1 80.1024 202.709L102.4 191.095L124.698 202.709C130.799 205.901 138.078 205.38 143.684 201.404C149.53 197.265 152.508 190.217 151.467 183.04L147.695 156.877L165.444 138.086C170.3 132.941 171.921 125.542 169.66 118.767ZM153.045 126.362L132.463 148.156C130.671 150.05 129.843 152.653 130.219 155.23L134.588 185.472C134.758 186.684 134.101 187.281 133.82 187.486C133.222 187.887 132.813 187.699 132.582 187.58L106.342 173.901C103.876 172.621 100.924 172.621 98.4576 173.901L72.2176 187.58C71.9872 187.708 71.5776 187.887 70.9803 187.486C70.6987 187.281 70.0502 186.675 70.2123 185.472L74.5814 155.23C74.9568 152.653 74.1291 150.05 72.3371 148.156L51.7547 126.362C50.9782 125.534 51.2 124.544 51.328 124.16C51.5499 123.486 51.9424 123.102 52.5056 122.999L81.4507 117.982C84.1216 117.513 86.4171 115.806 87.6374 113.374L101.154 86.2379C101.265 86.016 101.606 85.3333 102.4 85.3333C103.194 85.3333 103.543 86.0075 103.646 86.2293L117.163 113.374C118.383 115.806 120.67 117.513 123.349 117.982L152.303 122.999C152.849 123.102 153.242 123.486 153.472 124.16C153.609 124.544 153.822 125.534 153.045 126.362Z" fill="#0073E6"/>
<path d="M476.86 118.767C474.667 112.171 469.129 107.341 462.413 106.18L437.726 101.905L426.138 78.6261C422.955 72.2432 416.623 68.2667 409.609 68.2667C402.594 68.2667 396.271 72.2432 393.071 78.6347L381.483 101.914L356.804 106.189C350.08 107.349 344.533 112.171 342.349 118.775C340.087 125.551 341.709 132.941 346.564 138.086L364.314 156.877L360.542 183.04C359.501 190.225 362.487 197.265 368.324 201.404C371.482 203.648 375.177 204.783 378.88 204.783C381.756 204.783 384.649 204.1 387.302 202.709L409.6 191.095L431.898 202.709C437.99 205.901 445.278 205.38 450.884 201.404C456.73 197.265 459.708 190.217 458.667 183.04L454.895 156.877L472.644 138.086C477.5 132.941 479.121 125.542 476.86 118.767ZM460.245 126.362L439.663 148.156C437.871 150.05 437.043 152.653 437.419 155.23L441.788 185.472C441.958 186.684 441.301 187.281 441.02 187.486C440.422 187.887 440.013 187.699 439.782 187.58L413.542 173.901C411.076 172.621 408.124 172.621 405.658 173.901L379.418 187.58C379.196 187.708 378.769 187.887 378.18 187.486C377.899 187.281 377.25 186.675 377.412 185.472L381.781 155.23C382.157 152.653 381.329 150.05 379.537 148.156L358.955 126.362C358.178 125.534 358.4 124.544 358.528 124.16C358.75 123.486 359.142 123.102 359.706 122.999L388.651 117.982C391.322 117.513 393.617 115.806 394.837 113.374L408.354 86.2379C408.465 86.016 408.806 85.3333 409.6 85.3333C410.394 85.3333 410.743 86.0075 410.846 86.2293L424.363 113.374C425.583 115.806 427.87 117.513 430.549 117.982L459.503 122.999C460.049 123.102 460.442 123.486 460.672 124.16C460.809 124.544 461.022 125.534 460.245 126.362Z" fill="#0073E6"/>
<path d="M256 204.8C114.842 204.8 0 319.642 0 460.8C0 470.212 7.6544 477.867 17.0667 477.867H119.467C128.879 477.867 136.533 470.212 136.533 460.8C136.533 394.923 190.123 341.333 256 341.333C296.405 341.333 333.756 361.779 355.763 395.264C317.705 408.721 288.196 419.584 266.47 428.117C263.1 427.255 259.635 426.667 256 426.667C232.474 426.667 213.333 445.807 213.333 469.333C213.333 492.86 232.474 512 256 512C272.802 512 287.232 502.153 294.187 487.996C316.484 475.853 345.105 459.366 373.897 442.47C374.835 448.512 375.467 454.622 375.467 460.8C375.467 470.212 383.121 477.867 392.533 477.867H494.933C504.346 477.867 512 470.212 512 460.8C512 319.642 397.158 204.8 256 204.8ZM346.257 358.477C323.78 338.628 295.142 326.468 264.533 324.557V222.08C323.977 224.179 377.95 248.073 418.697 286.037L346.257 358.477ZM119.467 460.8H17.0667C17.0667 397.986 41.4635 340.796 81.2373 298.103L153.754 370.62C132.489 394.701 119.467 426.223 119.467 460.8ZM165.82 358.554L93.3035 286.037C134.05 248.081 188.015 224.188 247.467 222.08V324.693C216.252 326.639 187.895 339.055 165.82 358.554ZM437.376 384.947C396.425 409.455 339.695 443.179 298.342 466.21C297.557 455.569 293.026 445.969 285.841 438.921C320.188 425.822 370.022 408.064 437.376 384.947ZM255.991 494.933C241.877 494.933 230.391 483.447 230.391 469.333C230.391 455.219 241.877 443.733 255.991 443.733C270.106 443.733 281.591 455.219 281.591 469.333C281.591 483.447 270.106 494.933 255.991 494.933ZM392.525 460.8C392.525 451.465 391.535 442.214 389.666 433.186C409.728 421.342 429.286 409.677 446.174 399.582C453.845 394.931 456.67 385.707 452.907 377.643C449.161 369.63 440.371 365.858 431.906 368.777C410.223 376.218 390.409 383.095 372.267 389.461C368.119 382.711 363.435 376.414 358.289 370.577L430.746 298.121C470.519 340.813 494.916 398.003 494.916 460.817H392.516L392.525 460.8Z" fill="black"/>
</g>
<defs>
<clipPath id="clip0_2_86">
<rect width="512" height="512" fill="white"/>
</clipPath>
</defs>
</svg>
