<svg width="630" height="684" viewBox="0 0 630 684" fill="none" xmlns="http://www.w3.org/2000/svg">
<g clip-path="url(#clip0_2_117)">
<path d="M36.1809 456.839H89.5089C101.641 456.839 111.581 466.78 111.581 478.912V618.869C111.581 630.964 101.641 640.905 89.5089 640.905H36.1809C24.0476 640.905 14.1462 630.964 14.1462 618.869V478.912C14.1462 466.78 24.0476 456.839 36.1809 456.839Z" stroke="black" stroke-width="26.864" stroke-miterlimit="10" stroke-linecap="round" stroke-linejoin="round"/>
<path d="M111.581 481.141H139.323C149.867 480.688 151.379 480.725 162.869 476.191C216.311 455.1 259.963 452.643 313.443 502.988C320.133 509.261 321.645 511.037 332.303 511.037H404.831C424.598 511.037 440.813 527.215 440.813 547.02C440.813 566.787 424.598 582.964 404.831 582.964H287.289" stroke="black" stroke-width="26.864" stroke-miterlimit="10" stroke-linecap="round" stroke-linejoin="round"/>
<path d="M446.406 399.692C466.815 395.118 485.901 387.068 503.022 376.22L515.267 388.466C521.693 394.929 532.238 394.929 538.662 388.466L571.469 355.697C577.894 349.272 577.894 338.726 571.469 332.302L559.223 320.056C570.07 302.896 578.083 283.809 582.694 263.438H599.966C609.075 263.438 616.521 255.954 616.521 246.884V200.508C616.521 191.398 609.075 183.953 599.966 183.953H582.694C578.083 163.581 570.07 144.494 559.223 127.334L571.469 115.089C577.894 108.664 577.894 98.1182 571.469 91.6929L538.662 58.9235C532.238 52.4609 521.693 52.4609 515.267 58.9235L503.022 71.1702C485.901 60.3222 466.815 52.2715 446.406 47.6609V30.3876C446.406 21.2796 438.961 13.8329 429.851 13.8329H383.515C374.406 13.8329 366.961 21.2796 366.961 30.3876V47.6609C346.551 52.2715 327.465 60.3222 310.306 71.1702L298.061 58.9235C291.635 52.4609 281.092 52.4609 274.666 58.9235L241.898 91.6929C235.473 98.1182 235.473 108.664 241.898 115.089L254.143 127.334C243.297 144.494 235.246 163.581 230.673 183.953H213.364C204.254 183.953 196.809 191.398 196.809 200.508V246.884C196.809 255.954 204.254 263.438 213.364 263.438H230.673C235.246 283.809 243.297 302.896 254.143 320.056L241.898 332.302C235.473 338.726 235.473 349.272 241.898 355.697L274.666 388.466C281.092 394.929 291.635 394.929 298.061 388.466L310.306 376.22C327.465 387.068 346.551 395.118 366.961 399.692V417.002C366.961 426.11 374.406 433.557 383.515 433.557H429.851C438.961 433.557 446.406 426.11 446.406 417.002V399.692Z" stroke="#0073E6" stroke-width="26.864" stroke-miterlimit="10" stroke-linecap="round" stroke-linejoin="round"/>
<path d="M446.406 399.692V315.634C486.318 300.818 514.966 262.266 514.966 217.326C514.966 181.458 496.712 149.672 469.008 130.736C439.981 110.893 445.574 142.264 445.574 147.556V210.485C445.574 232.482 428.34 250.662 406.684 252.098C385.028 250.662 367.756 232.482 367.756 210.485V147.556C367.756 142.264 373.386 110.893 344.322 130.736C316.618 149.672 298.364 181.458 298.364 217.326C298.364 262.266 327.012 300.818 366.961 315.634V399.692" stroke="#0073E6" stroke-width="26.864" stroke-miterlimit="10" stroke-linecap="round" stroke-linejoin="round"/>
<path d="M445.008 631.758L418.664 650.543C372.554 681.271 353.09 669.175 304.561 656.061L166.536 619.134C158.258 616.905 158.749 616.641 153.117 616.641H111.581M436.39 529.785L552.232 470.294C569.24 461.563 590.026 465.306 600.041 481.558C610.094 497.81 604.313 518.295 588.778 529.369L542.556 562.289M493.838 596.986L493.801 597.023" stroke="black" stroke-width="26.864" stroke-miterlimit="10" stroke-linecap="round" stroke-linejoin="round"/>
</g>
<defs>
<clipPath id="clip0_2_117">
<rect width="630" height="684" fill="white"/>
</clipPath>
</defs>
</svg>
