<svg width="412" height="482" viewBox="0 0 412 482" fill="none" xmlns="http://www.w3.org/2000/svg">
<g clip-path="url(#clip0_2_110)">
<path d="M410.8 76.66C410.767 74.5546 410.085 72.5105 408.849 70.8064C407.612 69.1023 405.879 67.8209 403.888 67.1368L209.328 0.576788C207.176 -0.192914 204.824 -0.192914 202.672 0.576788L8.11202 67.1368C6.12055 67.8209 4.38839 69.1023 3.15151 70.8064C1.91464 72.5105 1.2332 74.5546 1.20002 76.66L0.688016 106.868C-0.847984 199.898 6.67842 266.663 23.7792 311.054C36.6013 344.478 55.9367 375.021 80.6624 400.91C110.241 430.991 145.292 455.146 183.933 472.078L201.75 480.218C203.084 480.827 204.534 481.142 206 481.142C207.466 481.142 208.916 480.827 210.25 480.218L228.067 472.078C266.708 455.146 301.759 430.991 331.338 400.91C356.087 375.01 375.441 344.449 388.272 311.002C405.373 266.612 412.899 199.847 411.363 106.817L410.8 76.66ZM369.174 303.63C357.327 334.567 339.434 362.833 316.541 386.778C288.739 414.901 255.849 437.488 219.619 453.338L206 459.636L192.381 453.441C156.151 437.59 123.261 415.003 95.4592 386.881C72.5549 362.905 54.6615 334.603 42.8256 303.63C26.8 261.748 19.5808 197.492 21.1168 107.38L21.4752 84.34L206 20.9032L390.32 84.1352L390.678 107.175C392.419 197.492 385.2 261.748 369.174 303.63Z" fill="black"/>
<path d="M359.6 112.5C359.577 110.386 358.901 108.33 357.663 106.616C356.426 104.902 354.688 103.613 352.688 102.926L209.328 53.7736C207.168 53.0551 204.833 53.0551 202.672 53.7736L59.312 102.926C57.3124 103.613 55.5745 104.902 54.3369 106.616C53.0993 108.33 52.4227 110.386 52.4 112.5V113.473C51.0176 194.676 57.52 256.526 71.3952 292.366C81.5427 318.927 96.8962 343.194 116.554 363.738C140.788 388.372 169.494 408.164 201.136 422.055L201.75 422.311C203.071 422.963 204.527 423.296 206 423.284C207.466 423.284 208.915 422.97 210.25 422.362L210.864 422.055C242.526 408.236 271.266 388.514 295.549 363.943C315.206 343.398 330.56 319.132 340.707 292.57C354.48 256.73 361.187 194.881 359.702 113.729L359.6 112.5ZM321.456 285.044C312.231 309.059 298.306 330.991 280.496 349.556C259.078 371.373 233.825 389.059 206 401.729C178.101 389.147 152.76 371.53 131.248 349.761C113.438 331.196 99.5132 309.264 90.288 285.249C78 252.686 71.7536 195.751 72.88 120.18L206 74.5096L339.12 120.18C340.246 195.7 334 252.686 321.558 285.249L321.456 285.044Z" fill="black"/>
<path d="M254.077 190.99L181.066 264.001L157.923 240.858C156.972 239.907 155.842 239.152 154.599 238.637C153.356 238.123 152.024 237.857 150.678 237.857C149.333 237.857 148.001 238.123 146.758 238.637C145.514 239.152 144.385 239.907 143.434 240.858C142.482 241.81 141.728 242.939 141.213 244.182C140.698 245.425 140.433 246.758 140.433 248.103C140.433 249.449 140.698 250.781 141.213 252.024C141.728 253.267 142.482 254.397 143.434 255.348L173.795 285.71C174.748 286.668 175.881 287.428 177.128 287.947C178.376 288.465 179.714 288.731 181.066 288.73C183.777 288.719 186.373 287.633 188.285 285.71L268.566 205.479C269.518 204.528 270.272 203.398 270.787 202.155C271.302 200.912 271.567 199.58 271.567 198.234C271.567 196.889 271.302 195.557 270.787 194.314C270.272 193.07 269.518 191.941 268.566 190.99C267.615 190.038 266.486 189.284 265.242 188.769C263.999 188.254 262.667 187.989 261.322 187.989C259.976 187.989 258.644 188.254 257.401 188.769C256.158 189.284 255.028 190.038 254.077 190.99Z" fill="black"/>
</g>
<defs>
<clipPath id="clip0_2_110">
<rect width="412" height="482" fill="white" transform="translate(0 -0.000488281)"/>
</clipPath>
</defs>
</svg>
