<svg enable-background="new 0 0 64 64" viewBox="0 0 64 64" xmlns="http://www.w3.org/2000/svg"><g id="Layer_1"/><g id="Layer_2"><g><path d="m61 7.8837891h-7v-4.8837891c0-.5527344-.4472656-1-1-1h-9.5996094c-.5527344 0-1 .4472656-1 1v4.8837891h-10.8007812v-4.8837891c0-.5527344-.4472656-1-1-1h-9.5996094c-.5527344 0-1 .4472656-1 1v4.8837891h-7c-.5527344 0-1 .4472656-1 1v10.0859375c-.0002632-.0000896.0001898 20.0300102-.000001 20.0302696.000001.5527382.4472666 1.0000038 1.000001 1.0000038s1-.4472656 1-1v-19.0292969h46v32.7392578h-5c-.5527344 0-1 .4472656-1 1s.4472656 1 1 1h6c.5527344 0 1-.4472656 1-1 .0000916-7.3952217-.0000648-38.0482712 0-44.8261719 0-.5527343-.4472656-.9999999-1-.9999999zm-16.5996094-3.8837891h7.5996094v3.8837891h-7.5996094zm-22.4003906 0h7.5996094v3.8837891h-7.5996094zm-1 5.8837891h39v8.0859375h-46v-8.0859375z"/><path d="m48.9121094 47.8261719-6.390625-1.1796875c-.3408203-.0625-.6289063-.28125-.8212891-.6552734l-2.6082764-4.3995361 1.8172607-1.8172607 3.4248047 1.1435547c.3564453.1210938.7548828.0263672 1.0234375-.2412109l5.3496094-5.3496094c.1875001-.1875002.2929688-.4414064.2929688-.7070314v-6.4101563c.0288506-.862442-1.1155739-1.3374977-1.7070465-.707962.0000153-.0000458-5.7118988 5.7040558-5.7118988 5.7040558l-1.7871094-1.7871094 5.7041016-5.7119141c.6281395-.5909691.1568871-1.7365246-.7080498-1.7070103.000042-.0000209-6.4101143-.0000209-6.4101143-.0000209-.265625 0-.5195313.1054688-.7070313.2929688l-5.3496094 5.3496094c-.2685547.2675781-.3613281.6640625-.2412109 1.0234375l1.1435547 3.4248047-4.3095703 4.3095703h-12.0263672c-1.0693359 0-2.0498047.5351563-2.578125 1.3681641l-4.6152344 6.1357422c-.1865234.2919922-.4882813.4785156-.8271484.5097656l-6.0283203.5507813c-1.6191406.1621092-2.8408203 1.5058592-2.8408203 3.1249999v5.140625c0 1.5488281 1.2607422 2.8095703 2.8095703 2.8095703h4.211792c1.0915356 5.2233391 8.6182499 5.2285271 9.7074585 0h15.0227661c1.0903473 5.2322273 8.6168137 5.2196846 9.706543 0h5.2020264c1.5488281 0 2.8095703-1.2607422 2.8095703-2.8095703v-4.3203125c0-1.5078125-1.0742188-2.803711-2.5576172-3.0839844zm-11.834961-12.7587891c.2685547-.2675781.3613281-.6640625.2412109-1.0234375l-1.1435547-3.4248047 4.6191407-4.6191406h3.5849609l-4.7070313 4.7128906c-.3896484.390625-.3896484 1.0234375.0009766 1.4140625l3.2001953 3.2001953c.390625.390625 1.0234375.3896484 1.4140625.0009766l4.7128907-4.7070312v3.5849609l-4.6191406 4.6191406-3.4248047-1.1435547c-.3574219-.1220703-.7548828-.0263672-1.0234375.2412109l-1.890625 1.8896485c-.5757103-.8667831-1.5676727-1.4125099-2.6123123-1.4120979.0000076-.0000114-1.6855392-.0000114-1.6855392-.0000114zm-23.1972656 24.9326172c-3.8983421-.1029472-3.9068956-5.80867.0000896-5.9101563 3.8947201.1015931 3.8846264 5.8082619-.0000896 5.9101563zm24.7197266 0c-3.8841171-.1027222-3.8926697-5.8088799.0000916-5.9101563 3.9075813.1020585 3.8974723 5.8077851-.0000916 5.9101563zm10.8701172-4.7695312c0 .4462891-.3632813.8095703-.8095703.8095703h-5.2021484c-1.1922607-5.2145576-8.5192337-5.216877-9.7060547 0h-15.0234376c-1.1892109-5.2199669-8.5165796-5.2114487-9.7070313 0h-4.211914c-.446289 0-.8095703-.3632813-.8095703-.8095703v-5.140625c0-.5878906.4472656-1.0751953 1.03125-1.1337891l6.0214844-.5498047c.9609375-.0898438 1.8105469-.6103516 2.2861328-1.3642578l4.6142578-6.1337891c.203125-.3183594.5527344-.5078125.9365234-.5078125h12.4404297 4.0996094c.4248047 0 .8076172.234375 1.0322266.671875l3.4863281 5.8808594c.4462891.8779297 1.2519531 1.4824219 2.2099609 1.6601563l6.3867188 1.1787109c.5361328.1015625.9248047.5712891.9248047 1.1181641z"/><path d="m19 26h11c1.3044815-.0045509 1.3104744-1.9948559-.0000648-1.9999962.0000648-.0000038-10.9999352-.0000038-10.9999352-.0000038-1.3044815.0045509-1.3104744 1.9948559 0 2z"/><path d="m19 31h6.1113281c1.3060284-.0048561 1.3092518-1.994894-.0000629-1.9999962.0000629-.0000038-6.1112652-.0000038-6.1112652-.0000038-1.3060284.0048561-1.3092518 1.994894 0 2z"/></g></g></svg>