<svg width="683" height="684" viewBox="0 0 683 684" fill="none" xmlns="http://www.w3.org/2000/svg">
<path d="M62.1809 456.839H115.509C127.641 456.839 137.581 466.78 137.581 478.912V618.869C137.581 630.964 127.641 640.905 115.509 640.905H62.1809C50.0476 640.905 40.1462 630.964 40.1462 618.869V478.912C40.1462 466.78 50.0476 456.839 62.1809 456.839Z" stroke="black" stroke-width="26.864" stroke-miterlimit="10" stroke-linecap="round" stroke-linejoin="round"/>
<path d="M137.581 481.141H165.323C175.867 480.688 177.379 480.725 188.869 476.191C242.311 455.1 285.963 452.643 339.443 502.988C346.133 509.261 347.645 511.037 358.303 511.037H430.831C450.598 511.037 466.813 527.215 466.813 547.02C466.813 566.787 450.598 582.964 430.831 582.964H313.289" stroke="black" stroke-width="26.864" stroke-miterlimit="10" stroke-linecap="round" stroke-linejoin="round"/>
<path d="M472.406 399.691C492.815 395.118 511.901 387.067 529.022 376.219L541.267 388.466C547.693 394.929 558.238 394.929 564.662 388.466L597.469 355.697C603.894 349.271 603.894 338.726 597.469 332.302L585.223 320.055C596.07 302.895 604.083 283.809 608.694 263.438H625.966C635.075 263.438 642.521 255.954 642.521 246.883V200.507C642.521 191.398 635.075 183.953 625.966 183.953H608.694C604.083 163.581 596.07 144.494 585.223 127.334L597.469 115.089C603.894 108.663 603.894 98.1181 597.469 91.6928L564.662 58.9234C558.238 52.4607 547.693 52.4607 541.267 58.9234L529.022 71.1701C511.901 60.3221 492.815 52.2714 472.406 47.6608V30.3874C472.406 21.2794 464.961 13.8328 455.851 13.8328H409.515C400.406 13.8328 392.961 21.2794 392.961 30.3874V47.6608C372.551 52.2714 353.465 60.3221 336.306 71.1701L324.061 58.9234C317.635 52.4607 307.092 52.4607 300.666 58.9234L267.898 91.6928C261.473 98.1181 261.473 108.663 267.898 115.089L280.143 127.334C269.297 144.494 261.246 163.581 256.673 183.953H239.364C230.254 183.953 222.809 191.398 222.809 200.507V246.883C222.809 255.954 230.254 263.438 239.364 263.438H256.673C261.246 283.809 269.297 302.895 280.143 320.055L267.898 332.302C261.473 338.726 261.473 349.271 267.898 355.697L300.666 388.466C307.092 394.929 317.635 394.929 324.061 388.466L336.306 376.219C353.465 387.067 372.551 395.118 392.961 399.691V417.002C392.961 426.11 400.406 433.557 409.515 433.557H455.851C464.961 433.557 472.406 426.11 472.406 417.002V399.691Z" stroke="black" stroke-width="26.864" stroke-miterlimit="10" stroke-linecap="round" stroke-linejoin="round"/>
<path d="M472.406 399.691V315.634C512.318 300.818 540.966 262.266 540.966 217.326C540.966 181.458 522.712 149.671 495.008 130.735C465.981 110.893 471.574 142.263 471.574 147.555V210.485C471.574 232.482 454.34 250.662 432.684 252.098C411.028 250.662 393.756 232.482 393.756 210.485V147.555C393.756 142.263 399.386 110.893 370.322 130.735C342.618 149.671 324.364 181.458 324.364 217.326C324.364 262.266 353.012 300.818 392.961 315.634V399.691" stroke="black" stroke-width="26.864" stroke-miterlimit="10" stroke-linecap="round" stroke-linejoin="round"/>
<path d="M471.008 631.758L444.664 650.543C398.554 681.271 379.09 669.175 330.561 656.061L192.536 619.134C184.258 616.905 184.749 616.641 179.117 616.641H137.581M462.39 529.785L578.232 470.294C595.24 461.563 616.026 465.306 626.041 481.558C636.094 497.81 630.313 518.295 614.778 529.369L568.556 562.289M519.838 596.986L519.801 597.023" stroke="black" stroke-width="26.864" stroke-miterlimit="10" stroke-linecap="round" stroke-linejoin="round"/>
</svg>
