<svg width="538" height="682" viewBox="0 0 538 682" fill="none" xmlns="http://www.w3.org/2000/svg">
<g clip-path="url(#clip0_2_39)">
<path d="M187.354 541.705C189.112 566.275 209.469 585.946 234.177 587C247.714 587.578 260.084 582.693 269.292 574.383V669H50.2841C30.245 669 14 652.818 14 632.856V414.702H269.292V501.856C260.575 493.999 249.025 489.203 236.333 489.203C208.026 489.203 185.305 513.073 187.354 541.705Z" stroke="black" stroke-width="26.6667" stroke-miterlimit="10" stroke-linecap="round" stroke-linejoin="round"/>
<path d="M453.85 668.998H488.303C508.342 668.998 524.587 652.816 524.587 632.855V414.7H435.307C441.943 405.828 445.634 394.643 444.929 382.577C443.507 358.231 423.806 338.375 399.381 336.7C370.685 334.733 346.792 357.337 346.792 385.501C346.792 396.446 350.402 406.549 356.499 414.7H269.296V501.857C260.06 493.526 247.631 488.643 234.055 489.255C209.351 490.369 189.045 510.084 187.345 534.657C185.368 563.241 208.063 587.042 236.337 587.042C249.02 587.042 260.58 582.25 269.296 574.386V668.998H335.807" stroke="black" stroke-width="26.6667" stroke-miterlimit="10" stroke-linecap="round" stroke-linejoin="round"/>
<path d="M294.95 24.8652L449.811 179.123L386.683 242.004C385.07 231.068 379.744 220.568 370.693 212.535C352.418 196.313 324.396 196.132 305.928 212.135C284.216 230.948 283.36 263.783 303.357 283.704C311.127 291.442 320.852 296.046 330.954 297.515L269.292 358.937L204.89 294.786C204.311 306.48 199.544 318.003 190.58 326.933C171.395 346.043 140.233 345.998 120.994 326.834C101.755 307.67 101.711 276.629 120.895 257.52C129.859 248.591 141.428 243.843 153.178 243.275L88.7751 179.123L243.636 24.8652C257.805 10.7515 280.78 10.7515 294.95 24.8652Z" stroke="black" stroke-width="26.6667" stroke-miterlimit="10" stroke-linecap="round" stroke-linejoin="round"/>
</g>
<defs>
<clipPath id="clip0_2_39">
<rect width="538" height="682" fill="white"/>
</clipPath>
</defs>
</svg>
